<svg height="15" viewBox="0 0 18 15" width="18" xmlns="http://www.w3.org/2000/svg"><path d="m86.0425152 67 6.1898194 5.263.0075143.027.0031511.039v5.329l-.0082531.112184c-.0219979.145536-.0879296.274816-.1972985.386816l-.084571.076192c-.1169084.090368-.2503231.135808-.3992511.135808h-4.1343029v-4.264h-2.7555556v4.263h-4.1323637l-.1091518-.008408c-.1413885-.022432-.2662708-.089792-.3756398-.202592l-.0733005-.087224c-.0868747-.120576-.130312-.258176-.130312-.411776v-5.329l.0009696-.01425.0038783-.01875.0038783-.0195.0009696-.0135zm-.0425152-3 .1602454.0081667c.2608102.0272222.4902546.1225.6877546.2858333l2.724 2.303v-2.202l.0063594-.0753438c.0127031-.0719062.0443906-.1334062.0946406-.1836562l.0536563-.0444688c.0570937-.0379687.1245937-.0565312.2033437-.0565312h2.144l.0745938.0062188c.0711562.0124687.1319062.0437812.1814062.0947812l.0444688.0539687c.0379687.0576563.0565312.1262813.0565312.2050313v4.607l2.445 2.055.0493125.0493594c.043125.0530156.0676875.1171406.0736875.1936406l-.000375.0734688c-.00675.0711562-.032625.1352812-.077625.1915312l-.693.836-.0479531.0455313c-.0516094.0407812-.1140469.0672187-.1860469.0784687h-.034l-.0687656-.0048906c-.0654844-.0097969-.1209844-.0343594-.1652344-.0741094l-7.726-6.515-7.726 6.515-.0669062.0387812c-.0670313.0325313-.1343438.0462188-.2010938.0402188l-.0691875-.0162813c-.065625-.0212812-.1205625-.0574687-.1648125-.1077187l-.692-.836-.0390625-.0588437c-.0324375-.0614063-.0451875-.1304063-.0399375-.2061563l.0117656-.0724219c.0182344-.0683906.0557344-.1248281.1112344-.1705781l8.028-6.763c.238-.196.521-.294.848-.294z" fill="#004955" fill-rule="evenodd" transform="translate(-77 -64)"/></svg>