<svg width="17" height="17" xmlns="http://www.w3.org/2000/svg"><g transform="translate(1 1)" stroke="#212529" stroke-width="1.333" fill="none" fill-rule="evenodd" stroke-linecap="round" stroke-linejoin="round"><circle cx="7.333" cy="7.333" r="2"/><path d="M12.267 9.333a1.1 1.1 0 0 0 .22 1.214l.04.04a1.333 1.333 0 1 1-1.887 1.886l-.04-.04a1.1 1.1 0 0 0-1.213-.22 1.1 1.1 0 0 0-.667 1.007v.113a1.333 1.333 0 1 1-2.667 0v-.06a1.1 1.1 0 0 0-.72-1.006 1.1 1.1 0 0 0-1.213.22l-.04.04a1.333 1.333 0 1 1-1.887-1.887l.04-.04a1.1 1.1 0 0 0 .22-1.213 1.1 1.1 0 0 0-1.006-.667h-.114a1.333 1.333 0 0 1 0-2.667h.06a1.1 1.1 0 0 0 1.007-.72 1.1 1.1 0 0 0-.22-1.213l-.04-.04a1.333 1.333 0 1 1 1.887-1.887l.04.04a1.1 1.1 0 0 0 1.213.22h.053A1.1 1.1 0 0 0 6 1.447v-.114a1.333 1.333 0 0 1 2.667 0v.06A1.1 1.1 0 0 0 9.333 2.4a1.1 1.1 0 0 0 1.214-.22l.04-.04a1.333 1.333 0 1 1 1.886 1.887l-.04.04a1.1 1.1 0 0 0-.22 1.213v.053A1.1 1.1 0 0 0 13.22 6h.113a1.333 1.333 0 1 1 0 2.667h-.06a1.1 1.1 0 0 0-1.006.666z"/></g></svg>