<svg height="400" viewBox="0 0 400 400" width="400" xmlns="http://www.w3.org/2000/svg"><g fill="none" fill-rule="evenodd"><path d="m0 0h400v400h-400z" fill="#fff"/><path d="m178.731915 149c1.251064 0 2.085106.834734 2.085106 2.086835v16.277311c0 1.2521.834043 2.086834 2.085107 2.086834h34.195744c1.251064 0 2.085107-.834734 2.085107-2.086834v-16.277311c0-1.252101 1.251064-2.086835 2.502127-2.086835h74.229788c1.251063 0 2.085106.834734 2.085106 2.086835v144.82633c0 1.252101-.834043 2.086835-2.085106 2.086835h-191.829788c-1.251063 0-2.085106-.834734-2.085106-2.086835v-144.82633c0-1.252101.834043-2.086835 2.085106-2.086835zm92.756648-47c.833185 0 1.666371.421687 2.499557 1.26506l18.746677 30.361446c.833186 1.26506-.416593 3.373494-2.082964 3.373494h-68.737818c-.833185 0-2.082964-.843373-2.082964-2.108434l-3.749335-30.361446c-.416593-1.26506.833185-2.53012 2.082964-2.53012zm-88.585477 0c1.258149 0 2.096914 1.26506 2.096914 2.53012l-3.774444 30.361446c0 1.265061-.838766 2.108434-2.096914 2.108434h-67.939998c-1.677531 0-2.935679-2.108434-1.677531-3.795181l22.227283-30.361446c.419383-.421686 1.258149-.843373 1.677531-.843373z" fill="#e8e8e9" fill-rule="nonzero"/></g></svg>