<svg height="50" viewBox="0 0 50 50" width="50" xmlns="http://www.w3.org/2000/svg" xmlns:xlink="http://www.w3.org/1999/xlink"><linearGradient id="a"><stop offset="0" stop-color="#fff" stop-opacity=".1"/><stop offset="1" stop-color="#fff" stop-opacity="0"/></linearGradient><linearGradient id="b" x1="0%" x2="100%" xlink:href="#a" y1="50%" y2="50%"/><linearGradient id="c" x1="25.360567%" x2="60.680265%" y1="25.240385%" y2="96.5%"><stop offset="0" stop-color="#bf360c" stop-opacity=".2"/><stop offset="1" stop-color="#bf360c" stop-opacity=".02"/></linearGradient><linearGradient id="d" x1="33.532237%" x2="98.220395%" xlink:href="#a" y1="33.573026%" y2="98.261184%"/><g fill="none"><path d="m45.9566075 0h-9.1058514c-2.2024984 0-4.0105194 1.80921053-4.0105194 4.01315789v11.77631581h-13.182117c-2.1367522 0-3.879027 1.743421-3.879027 3.9144737v13.1907894h-11.86719263c-2.16962525 0-3.91190007 1.7434211-3.91190007 3.9144737v9.2105263c0 2.1710527 1.74227482 3.9144737 3.91190007 3.9802632h42.07758053c2.2024984 0 4.0105194-1.8092105 4.0105194-4.0131579v-41.97368421c-.0328731-2.20394736-1.8408941-4.01315789-4.0433925-4.01315789z" fill="url(#b)"/><path d="m45.9566075 0h-9.1058514c-2.2024984 0-4.0105194 1.80921053-4.0105194 4.01315789v11.77631581h-13.182117c-2.1367522 0-3.879027 1.743421-3.879027 3.9144737v13.1907894h-11.86719263c-2.16962525 0-3.91190007 1.7434211-3.91190007 3.9144737v9.2105263c0 2.1710527 1.74227482 3.9144737 3.91190007 3.9802632h42.07758053c2.2024984 0 4.0105194-1.8092105 4.0105194-4.0131579v-41.97368421c-.0328731-2.20394736-1.8408941-4.01315789-4.0433925-4.01315789z" fill="url(#b)"/><path d="m45.9749975 0h-9.0437227c-2.2033797 0-4.0121242 1.80874454-4.0121242 4.01212424v45.97499746h13.0558469c2.2033797 0 4.0121242-1.8087445 4.0121242-4.0121242v-41.96287326c0-2.2033797-1.8087445-4.01212424-4.0121242-4.01212424z" fill="#f57c00"/><path d="m15.7854069 19.7317586v13.1545057h-11.83905518c-2.17049345 0-3.94635172 1.7758583-3.94635172 3.9463517v9.208154c0 2.1704935 1.77585827 3.9463517 3.94635172 3.9463517h28.93991258v-34.2017148h-13.1545057c-2.1704935 0-3.9463517 1.7758582-3.9463517 3.9463517z" fill="#ffc107"/><path d="m32.8779599 15.7559199v34.2440801h13.02754c2.1986025 0 4.0034254-1.810985 4.0034254-4.017094v-13.1049461z" fill="url(#c)"/><g fill="#fff"><path d="m19.7071599 16.0851899h13.1708v-.32927h-13.1708c-2.173182 0-3.95124 1.778058-3.95124 3.95124v.32927c0-2.173182 1.778058-3.95124 3.95124-3.95124z" opacity=".2"/><path d="m3.93897996 33.2072299h11.81693994v-.32927h-11.81693994c-2.16643898 0-3.93897996 1.778058-3.93897996 3.95124v.32927c0-2.173182 1.77254098-3.95124 3.93897996-3.95124z" opacity=".2"/><path d="m45.9054999 0h-9.0241146c-2.1986025 0-4.0034254 1.82149362-4.0034254 4.04040404v.33118066c0-2.21891042 1.8048229-4.04040404 4.0034254-4.04040404h9.0241146c2.1986025 0 4.0034254 1.82149362 4.0034254 4.04040404v-.33118066c0-2.21891042-1.8048229-4.04040404-4.0034254-4.04040404z" opacity=".2"/></g><path d="m45.9328907 49.6688193h-41.9901533c-2.16850557 0-3.9427374-1.7883755-3.9427374-3.9741679v.3311807c0 2.1857923 1.77423183 3.9741679 3.9427374 3.9741679h41.9572972c2.2013617 0 4.0088907-1.8214936 4.0088907-4.040404v-.3311807c.0324151 2.2189104-1.7746729 4.040404-3.9760346 4.040404z" fill="#bf360c" opacity=".2"/><path d="m45.9868421 0h-9.0460526c-2.2039474 0-4.0131579 1.80921053-4.0131579 4.01315789v11.77631581h-13.1578948c-2.1710526 0-3.9473684 1.7763158-3.9473684 3.9473684v13.1578947h-11.87499998c-2.17105263 0-3.94736842 1.7763158-3.94736842 3.9473685v9.2105263c0 2.1710526 1.77631579 3.9473684 3.94736842 3.9473684h42.03947368c2.2039474 0 4.0131579-1.8092105 4.0131579-4.0131579v-41.97368421c0-2.20394736-1.8092105-4.01315789-4.0131579-4.01315789z" fill="url(#d)"/></g></svg>