<svg enable-background="new 0 0 242.9 48.9" viewBox="0 0 242.9 48.9" xmlns="http://www.w3.org/2000/svg"><g fill="#c60c30"><path d="m30.1 9.9c-6.1 0-11 0-11.5 0-1.5 0-4.2 1.2-4.9 2.4l-4.4-5.6c2.2-2.2 6.1-4.2 8.6-4.2h42.8l-4.4 7.3s-8.3 0-17.1 0c0 0-13.9 25-16.9 29.9-2.9 4.9-7.5 7.6-10.2 7.8-3.7.3-5.8.2-8.4 0-1.1-.1-2.3-.2-3.1-.6-.7-.3-.8-.2-.3-1 .4-.5 2.2-4.1 2.8-5.2.6-1.2.2-1.1 1.7-.7 1.3.4 3.1.4 3.9.4.9 0 4.2.5 7.1-4.8 2.9-5.1 14.3-25.7 14.3-25.7z"/><path d="m156.1 16.2c1.3 0 3.6.7 4.2 1.6s.6.7 1 .3c1.2-1.2 1.1-1.1 1.9-1.1h5.4c.9 0 .8.1.1 1.5s-7.8 11.7-7.8 15.4c0 2 1 2.2 1.5 2.2 3 0 5.3-2.1 6.5-3.4.7-.7.9-.9.7-2.1s.1-3.5.4-5.2 2-8 4-11.7 6.2-9.1 9.1-11.2c2.9-2.1 4.8-2.6 7-2.6 2.3 0 5.5 1.2 5.5 5.9s-3.2 10.6-5.4 13.8-6.1 8.4-9.4 11.1c-3.4 2.8-3.3 2.4-2.9 3.4.4.9 1.5 1.3 2.8.9 1.3-.5 2.1-1.1 3.4-1.8s1.3-.7 2.8-2.4c1.5-1.8 7.8-11.5 8.3-12.6s.4-1 1-1h6.4c.8 0 .6.1.1 1s-7.1 12.3-7.9 13.6.2 2.6 1 2.6c.9 0 1.5-.6 2.6-1.7 1.1-1 1.5-1.6 2.8-3.8 1.1-2 5.9-10 6.6-11s.6-.8 1.4-.8 4.9 0 5.7 0 .5.1 0 .9-6.9 11.8-7.7 13.2c-.8 1.3-1 4 1.2 4 2.1 0 3.9-1 4.6-1.5s.9-.5.7-1.5c-.1-1 0-3.6.4-4.8s2-4.8 4.7-7.4 6.1-4.9 9.5-4.9c1.2 0 2.4.1 4.3 2.1 2.9 3 2.3 4.2 1.6 5.5-1 1.9-3 4.4-5.4 6.6s-5.1 4.6-6 5.3c-.9.6-.9 1-.2 1.3s2.4.7 3.7.2 3.6-1.8 4.7-2.4c1-.6.9-.6 1.2.2.3.7 1.2 3.1 1.4 3.8s.1.6-.7 1-5.8 3.5-10 3.5-5.5-1.3-6.4-2.4c-.9-1-.9-1.2-1.8-.4-.9.7-5.1 2.9-8 2.9s-4.9-2.6-5.3-3.7c-.4-1-.5-1.2-1.4-.4s-5 3.9-8.1 3.9-3.9-2.2-4.2-3.4-.4-1-1.6-.2-6.3 4-9.9 4-4.2-2.4-4.7-3.3-.6-.7-1.4 0c-.9.7-5.5 3.5-9.7 3.5s-4.4-2.1-4.8-3.2-.4-1-1.4-.1-3.2 3.4-7.5 3.4c-4.2 0-7.2-3.2-7.2-8.2s3.3-10 6.1-12.7c2.7-2.8 7.1-5.7 10.5-5.7zm-4.9 8.5c-1.9 1.6-4.2 5.6-4.5 6.2-1 1.8-1.5 4.8 1.5 4.8 2.9 0 4.8-2.1 5.6-3.7.9-1.5 2.1-3.8 3.4-6.7s-.4-2.7-1.5-2.7c-1.4.1-2.6.5-4.5 2.1zm27.8-.7c1.4-1.1 4.1-3.5 6.4-7.2s2.9-5.9 3.2-7.3c.4-1.3 0-2.9-1.9-1.5s-3.8 3.4-5.1 5.6c-2 3.3-3.4 7-3.9 10-.3 1.8.3 1.2 1.3.4zm43 4c1.9-1.1 4.9-3.9 5.7-6.2.6-1.7.3-2.3-1.5-1.2-3 1.9-4.5 4.6-5 6.8-.1 1 0 1 .8.6z"/><path d="m44 14.2c1.3.7 3.9 2 4.3 2.3.5.2.4.4.4 1 0 1-.1.9.8.9h8.1s1.3.4.4 1.7-7.2 12.3-8 13.5c-.8 1.3-.9 3 2.5 1.6 1.9-.8 4.5-2.2 7.3-7s5.1-8.6 5.5-9.4c.4-.9.4-.7 1.3-.7h5c1 0 .9.2.5.9-.9 1.4-7 12.2-7.9 13.8s-.7 2.9.4 2.9 1.9-.5 3.5-2c1.7-1.5 2-2.4 2.8-3.9 1.1-1.7 5.8-9.8 6.4-10.8s.4-.9 1.6-.9h5.7c.7 0 .3.3-.1 1s-6.9 12.2-8 14.1.1 3.3.9 3.3c.7 0 2.4.2 5-1.8.8-.6.9-.6.7-2-.1-1.3.5-3.3 1.4-5.1s6.1-11.9 12.7-11.9c4.3 0 6.6 4.1 6.6 5.5s-1.2 5.4-5.1 9c-4 3.6-5.1 4.3-6.1 5-1 .6-1 .9-.5 1.5.6.6 1.8.9 3.1.6 1.2-.4 4.8-2.6 5.7-3.4.9-.9.8-.8 1.3.1s1.2 2.8 1.6 3.7.1.8-.7 1.3-6.4 4.5-10.6 4.5-6.2-2-6.6-2.5c-.6-.8-.4-.8-1.3-.2s-6.5 3.1-9.2 3.1c-3.3 0-4.3-2.1-4.7-3.6-.2-1-.2-1-.8-.4s-4.5 3.6-8.4 3.6-4.3-2.5-4.6-3.4c-.3-1.2.2-1.6-1.3-.4-1 .9-6.7 4.2-9.3 4.2s-4.8-2.1-4.8-4.8c0-1.9.4-2.3 1.7-4.5 1.3-2.3 4.6-7.8 5.4-9.1.7-1.3.9-1.5-.2-1.5s-1.5 0-2.3 0-.8 0-1.3.9c-.8.6-10.4 16.3-11.1 17.4s-.7.8-1.6.3-2.5-1.5-3.2-2c-.7-.4-.6-.5-.1-1.3.5-.9 13.3-23.2 14.1-24.5.6-1.2.5-1 1.1-.6zm47.4 14.7c1.9-1.1 4.9-3.9 5.7-6.2.6-1.7.3-2.3-1.5-1.2-3 1.9-4.5 4.6-5 6.8-.2 1.1-.1 1.1.8.6z"/><path d="m236.1 37.6c0-1.9 1.6-3.4 3.4-3.4s3.4 1.4 3.4 3.4c0 1.9-1.6 3.4-3.4 3.4s-3.4-1.5-3.4-3.4zm3.4 2.8c1.5 0 2.7-1.2 2.7-2.8s-1.2-2.8-2.7-2.8-2.7 1.2-2.7 2.8 1.2 2.8 2.7 2.8zm-.7-.9h-.6v-3.9h1.5c.9 0 1.4.3 1.4 1.1 0 .7-.4 1-1 1.1l1.1 1.7h-.7l-1-1.7h-.7zm.7-2.1c.5 0 .9 0 .9-.6 0-.5-.4-.6-.8-.6h-.8v1.2z"/><path d="m94.7 1.7h33.3c1.3 0 1.2 0 .5 2-.5 1.5-10.5 31-10.9 32.5-.4 1.6.2 1.8 1.3.6s22.4-27.6 24.5-30.3 4.3-4.9 7.1-5.9 2.3-.6 2.8.4 2 3.9 2.3 5c.4 1.1-.4.9-1.2 1.1-.6.2-3.5 1.8-4.5 3.2-1.6 2.1-26.4 33.4-29 36s-5.9 2.7-7 2.7-6.2-.7-6.2-5 2.3-8 4-13.1 5.7-17.1 6.5-19.5c.7-2.3 0-2-1.6-2s-18.7 0-20.6 0c-1.8 0-2.2.1-2.8 1-.4.7-.4.6-1.3.6s-7.8 0-8.4 0c-.8 0-.6.1-.6-1 0-.7 1.3-3.4 3.3-5 3.3-2.6 4.5-3.3 8.5-3.3z"/></g></svg>