<?xml version="1.0" encoding="UTF-8"?>
<svg width="91px" height="20px" viewBox="0 0 91 20" version="1.1" xmlns="http://www.w3.org/2000/svg" xmlns:xlink="http://www.w3.org/1999/xlink">
    <title>truevalue-logo</title>
    <g id="Page-1" stroke="none" stroke-width="1" fill="none" fill-rule="evenodd">
        <path d="M57.3833333,0.229090909 L58.7133333,3.27090909 L58.4870741,3.35625572 C57.2513085,3.83958567 56.7792929,4.33281145 55.8193939,5.60151515 L55.8193939,5.60151515 L46.6681818,17.6890909 L46.4874421,17.9223608 C45.3495659,19.357828 44.3351818,19.999697 43.1093939,19.999697 C41.6230303,19.999697 40.5672727,19.0518182 40.5672727,17.6890909 C40.5672727,17.1760606 40.6845455,16.5042424 40.9975758,15.5163636 L40.9975758,15.5163636 L44.4387879,4.17939394 L36.8515846,4.17999267 C35.7365869,4.18508184 35.4733174,4.23342903 35.0533333,4.69272727 L35.0533333,4.69272727 L31.2209091,4.69272727 C31.3381818,2.04636364 32.8633333,0.97969697 36.6957576,0.979393939 L36.6957576,0.979393939 L48.8187879,1.01909091 L44.0478788,15.9112121 L53.5509091,3.31030303 L53.7419228,3.06107683 C55.1724632,1.20724432 55.8468056,0.645530303 57.3833333,0.229090909 L57.3833333,0.229090909 Z M22.9845455,1.02727273 L21.3027273,4.18757576 L14.8112121,4.18757576 L8.59272727,15.919697 L8.4658754,16.1566378 C7.26826073,18.3292934 5.67882968,19.4157576 2.92242424,19.4157576 C1.94454545,19.4157576 1.24060606,19.2575758 0.0284848485,18.9809091 L0.0284848485,18.9809091 L1.24060606,16.1963636 L1.44978177,16.2328241 C1.97598204,16.3226375 2.26195286,16.3542424 2.60969697,16.3542424 C4.36939394,16.3542424 5.22969697,15.6824242 6.16818182,13.8257576 L6.16818182,13.8257576 L11.1354545,4.18757576 L8.78878788,4.18757576 L8.48271222,4.18967995 C6.90921359,4.21242529 6.24693405,4.42434938 4.99545455,5.05636364 L4.99545455,5.05636364 L3.43090909,2.6469697 L3.60645556,2.51021007 C5.10646382,1.3568849 6.08020202,1.02727273 8.86666667,1.02727273 L8.86666667,1.02727273 L22.9845455,1.02727273 Z M71.4712121,0.432727273 C72.5666667,0.432727273 73.6224242,1.42060606 73.6224242,2.92151515 C73.6224242,6.35818182 70.1027273,11.0587879 66.8566667,14.0612121 C67.2090909,14.2981818 67.4439394,14.4169697 67.8348485,14.4169697 C68.9687879,14.4169697 70.1424242,13.389697 71.1587879,11.4936364 L71.1587879,11.4936364 L73.4272727,7.34575758 L76.3993939,7.34575758 L74.1309091,11.7306061 L74.0927628,11.8009492 C73.8841185,12.1966599 73.2709091,13.492202 73.2709091,13.8242424 C73.2709091,14.0612121 73.4272727,14.1793939 73.6227273,14.1793939 C74.1309091,14.1793939 74.8742424,13.3893939 75.5781818,12.0066667 L75.5781818,12.0066667 L77.9242424,7.34575758 L80.8575758,7.34575758 L78.2375758,12.4812121 L78.143144,12.6683553 C77.7844002,13.3996898 77.6509091,13.9215618 77.6509091,14.140303 C77.6509091,14.4954545 77.8854545,14.6930303 78.3154545,14.6930303 C78.9021212,14.6930303 79.4887879,14.3772727 79.9581818,13.9033333 C80.31,10.6242424 82.0306061,6.55575758 85.4333333,6.55575758 C86.1760606,6.55575758 87.9360606,7.46424242 87.9360606,9.1630303 C87.9360606,10.6245455 86.2548485,12.3227273 83.2433333,14.8115152 C83.5166667,14.9693939 83.7515152,15.0881818 83.9860606,15.0881818 C84.6509091,15.0881818 85.7851515,14.5351515 86.9193939,13.7054545 L86.9193939,13.7054545 L87.5448485,15.9969697 L87.2809211,16.1852305 C85.9612512,17.1049527 84.6410985,17.6951515 83.3212121,17.6951515 C82.1872727,17.6951515 81.5218182,17.2209091 80.8966667,16.4309091 C79.0193939,17.4581818 78.3936364,17.6951515 77.6506061,17.6951515 C76.4378788,17.6951515 75.8124242,16.9445455 75.460303,15.7990909 C73.739697,17.2212121 73.1139394,17.6951515 72.2145455,17.6951515 C71.0412121,17.6951515 70.5721212,17.0236364 70.3766667,15.8387879 C68.6951515,17.1818182 67.7563636,17.6951515 66.5830303,17.6951515 C65.3706061,17.6951515 64.8627273,17.2606061 64.3539394,16.1151515 C62.3984848,17.3 61.4990909,17.6951515 60.3651515,17.6951515 C59.1527273,17.6951515 58.6445455,17.2609091 58.3312121,16.2333333 C56.7672727,17.339697 55.9851515,17.6951515 55.0463636,17.6951515 C53.5212121,17.6951515 52.3478788,16.4309091 52.3478788,14.2581818 C52.3478788,11.0984848 55.5936364,6.87181818 58.6051515,6.87181818 C59.5045455,6.87181818 60.0133333,7.14848485 60.7172727,7.66181818 L60.7172727,7.66181818 L60.9518182,7.34575758 L63.7672727,7.34575758 L61.5378788,11.8093939 L61.4252551,12.0398339 C60.8130958,13.3089263 60.6384848,13.9580808 60.6384848,14.2190909 C60.6384848,14.5748485 60.9124242,14.7718182 61.3818182,14.7718182 C61.9293939,14.7718182 62.79,14.3372727 63.8063636,13.35 C63.9239394,7.42454545 67.5612121,0.432727273 71.4712121,0.432727273 Z M16.1612121,5.47666667 L18.3121212,6.78030303 L18.2733333,7.33333333 L22.1842424,7.33333333 L19.5636364,12.6657576 L19.4776985,12.8414801 C19.1010037,13.6220141 19.0581757,13.8596619 19.054791,13.9817298 L19.0551515,14.0484848 C19.0551515,14.2854545 19.2118182,14.4042424 19.4463636,14.4042424 C20.150303,14.4042424 21.5972727,13.0606061 22.8878788,10.4142424 L22.8878788,10.4142424 L24.4130303,7.33333333 L27.3851515,7.33333333 L24.9606061,12.1524242 L24.868057,12.3364562 C24.2209011,13.6379498 24.2566667,13.8954545 24.2566667,14.0087879 C24.2566667,14.2066667 24.4130303,14.3645455 24.569697,14.3645455 C25.1560606,14.3645455 25.9775758,13.4166667 26.9551515,11.3227273 L26.9551515,11.3227273 L28.8321212,7.3330303 L32.0393939,7.3330303 L29.8493939,11.6384848 L29.7358773,11.8588908 C28.8946575,13.4977331 28.7151515,13.9776136 28.7151515,14.1666667 C28.7151515,14.3645455 28.9887879,14.6015152 29.4972727,14.6015152 C30.0451515,14.6015152 30.5924242,14.3248485 31.2572727,13.8115152 C31.3745455,10.2169697 33.8384848,6.26666667 36.5366667,6.26666667 C37.7878788,6.26666667 38.9612121,7.53090909 38.9612121,8.47878788 C38.9612121,10.4539394 36.8884848,12.8636364 34.3463636,14.6806061 C34.7375758,14.8781818 34.9724242,14.9566667 35.2460606,14.9566667 C35.8718182,14.9566667 36.5363636,14.6806061 38.1790909,13.4557576 L38.1790909,13.4557576 L39,15.6287879 L38.7308442,15.8201631 C37.0308818,17.0056379 35.4294697,17.6833333 34.4636364,17.6833333 C33.5642424,17.6833333 32.9384848,17.3666667 31.999697,16.3793939 C30.0448485,17.4063636 29.2624242,17.6833333 28.2457576,17.6833333 C27.1115152,17.6833333 26.720303,17.2484848 26.4860606,16.1424242 C25.1563636,17.129697 24.1006061,17.6833333 23.0054545,17.6833333 C22.0666667,17.6833333 21.5975758,17.2087879 21.2454545,15.9448485 C19.2509091,17.2087879 18.3124242,17.6833333 17.3348485,17.6833333 C16.3569697,17.6833333 15.4575758,17.0709091 15.4575758,15.9051515 C15.4575758,15.3127273 15.5748485,15.0757576 16.1221212,13.930303 L16.1221212,13.930303 L18.1560606,9.66393939 L17.1781818,9.66393939 L12.72,17.6830303 L10.53,16.300303 L16.1612121,5.47666667 Z M89.9839394,15.4315152 C90.4984848,15.4315152 90.9375758,15.839697 90.9372729,16.3945455 C90.9372729,16.9542424 90.4981818,17.3627273 89.9839394,17.3627273 C89.4645455,17.3627273 89.0251515,16.9545455 89.0251515,16.3945455 C89.0251515,15.84 89.4645455,15.4315152 89.9839394,15.4315152 Z M89.9839394,15.5924242 C89.5521212,15.5924242 89.2151515,15.9372727 89.2151515,16.3945455 C89.2151515,16.86 89.5521212,17.2021212 89.9839394,17.2021212 C90.2056938,17.2021212 90.4033005,17.1097052 90.5419587,16.95559 L90.3962289,16.9542424 L90.0488335,16.4709091 L89.819193,16.4709091 L89.819193,16.9542424 L89.62,16.9542424 L89.62,15.839697 L90.1218342,15.839697 L90.23124,15.8443058 C90.4693042,15.865928 90.5869846,15.9644318 90.5869846,16.1566667 C90.5869846,16.3560606 90.4384153,16.4430303 90.2450917,16.4633333 L90.2450917,16.4633333 L90.583032,16.9058506 C90.686518,16.7691725 90.7478788,16.5930781 90.7478788,16.3945455 C90.7478788,15.9375758 90.4106061,15.5924242 89.9839394,15.5924242 Z M90.0910198,15.9842424 L89.819193,15.9842424 L89.819193,16.3293939 L90.0576376,16.3293939 L90.1200573,16.3286044 C90.2624535,16.3242377 90.377887,16.2974242 90.377887,16.1478788 C90.377887,16.01 90.2304182,15.9842424 90.0910198,15.9842424 L90.0910198,15.9842424 Z M58.38,9.50939394 C57.1284848,9.50939394 55.0166667,12.5506061 55.0166667,13.8942424 C55.0166667,14.3684848 55.329697,14.6445455 55.7206061,14.6445455 C56.189697,14.6445455 56.8545455,14.2493939 57.5584848,13.3412121 C58.809697,11.7218182 59.1230303,10.7339394 59.1233333,10.2993939 C59.1233333,9.86484848 58.8887879,9.50939394 58.38,9.50939394 Z M85.3506061,8.7630303 C84.1384848,8.7630303 83.1609091,10.8966667 82.8478788,11.9627273 C84.8812121,10.6587879 85.5851515,9.71121212 85.5851515,9.07909091 C85.5851515,8.92090909 85.5072727,8.7630303 85.3506061,8.7630303 Z M36.2712121,8.64878788 C35.3718182,8.64878788 34.3157576,10.9790909 34.0809091,11.8484848 C34.7460606,11.4139394 36.4666667,9.75484848 36.4666667,8.92545455 C36.4666667,8.76757576 36.4272727,8.64878788 36.2712121,8.64878788 Z M70.4881818,3.68484848 C70.0187879,3.68484848 68.9627273,4.90939394 68.0239394,6.6869697 C67.320303,8.03 67.0860606,8.85939394 66.8512121,10.439697 C68.8454545,8.62272727 70.8793939,5.30424242 70.8793939,4.19848485 C70.8793939,3.88212121 70.6836364,3.68484848 70.4881818,3.68484848 Z" id="truevalue-logo" fill="#FFFFFF"></path>
    </g>
</svg>