<svg width="25" height="25" viewBox="0 0 25 25" fill="none" xmlns="http://www.w3.org/2000/svg">
<path d="M24.5 12.5C24.5 19.1274 19.1274 24.5 12.5 24.5C5.87258 24.5 0.5 19.1274 0.5 12.5C0.5 5.87258 5.87258 0.5 12.5 0.5C19.1274 0.5 24.5 5.87258 24.5 12.5Z" stroke="#ED6730"/>
<path d="M11.9375 13.0625H8.5625C8.25184 13.0625 8 12.8107 8 12.5C8 12.1893 8.25184 11.9375 8.5625 11.9375H11.9375V8.5625C11.9375 8.25184 12.1893 8 12.5 8C12.8107 8 13.0625 8.25184 13.0625 8.5625V11.9375H16.4375C16.7482 11.9375 17 12.1893 17 12.5C17 12.8107 16.7482 13.0625 16.4375 13.0625H13.0625V16.4375C13.0625 16.7482 12.8107 17 12.5 17C12.1893 17 11.9375 16.7482 11.9375 16.4375V13.0625Z" fill="#ED6730" stroke="#ED6730"/>
</svg>
