<svg width="9" height="9" viewBox="0 0 9 9" fill="none" xmlns="http://www.w3.org/2000/svg">
<path d="M3.58709 4.25L0.637294 1.30021C0.454235 1.11715 0.454235 0.820352 0.637294 0.637294C0.820352 0.454235 1.11715 0.454235 1.30021 0.637294L4.25 3.58709L7.19979 0.637294C7.38285 0.454235 7.67965 0.454235 7.86271 0.637294C8.04576 0.820352 8.04576 1.11715 7.86271 1.30021L4.91291 4.25L7.86271 7.19979C8.04576 7.38285 8.04576 7.67965 7.86271 7.86271C7.67965 8.04576 7.38285 8.04576 7.19979 7.86271L4.25 4.91291L1.30021 7.86271C1.11715 8.04576 0.820352 8.04576 0.637294 7.86271C0.454235 7.67965 0.454235 7.38285 0.637294 7.19979L3.58709 4.25Z" fill="white" stroke="white"/>
</svg>
