<svg width="50" height="50" viewBox="0 0 50 50" fill="none" xmlns="http://www.w3.org/2000/svg">
<path d="M25 50C38.8071 50 50 38.8071 50 25C50 11.1929 38.8071 0 25 0C11.1929 0 0 11.1929 0 25C0 38.8071 11.1929 50 25 50Z" fill="#ed6730"/>
<path fill-rule="evenodd" clip-rule="evenodd" d="M20.2918 21.267C20.6828 20.872 21.3148 20.872 21.7057 21.267L24.0008 23.747V18C24.0008 17.448 24.4488 17 25.0008 17C25.5528 17 26.0008 17.448 26.0008 18V23.745L28.2927 21.267C28.6837 20.872 29.3168 20.872 29.7067 21.267C30.0977 21.663 30.0977 22.304 29.7067 22.699L26.0598 26.548C25.7778 26.834 25.4008 26.992 24.9998 26.992C24.5977 26.992 24.2228 26.834 23.9388 26.548L20.2918 22.699C19.9008 22.304 19.9008 21.663 20.2918 21.267ZM30.9991 31C30.9991 31 19 31.0026 19 31.0046V26C19 25.4477 18.5523 25 18 25C17.4477 25 17 25.4477 17 26V31.0046C17 32.1085 17.8942 33 19.0009 33H30.9991C32.101 33 33 32.0998 33 31.0046V26C33 25.4477 32.5523 25 32 25C31.4477 25 31 25.4477 31 26C31 26 30.9958 31 30.9991 31Z" fill="white"/>
</svg>
