<?xml version="1.0" encoding="UTF-8"?>
<svg width="11px" height="20px" viewBox="0 0 11 20" version="1.1" xmlns="http://www.w3.org/2000/svg" xmlns:xlink="http://www.w3.org/1999/xlink">
    <!-- Generator: Sketch 56.2 (81672) - https://sketch.com -->
    <title></title>
    <desc>Created with Sketch.</desc>
    <g id="Admin-Settings-" stroke="none" stroke-width="1" fill="none" fill-rule="evenodd">
        <g id="Admin-View@2x-Copy-3" transform="translate(-444.000000, -1151.000000)" fill="#ED6730" fill-rule="nonzero">
            <path d="M447.007805,1170.99995 L447.007805,1162.05466 L444,1162.05466 L444,1158.49998 L447.007805,1158.49998 L447.007805,1155.68749 C447.007805,1154.20312 447.424471,1153.05078 448.257802,1152.23047 C449.091133,1151.41016 450.197902,1151 451.578107,1151 C452.697896,1151 453.609352,1151.05208 454.312475,1151.15625 L454.312475,1154.3203 L452.43748,1154.3203 C451.734357,1154.3203 451.252587,1154.47655 450.992171,1154.78905 C450.783838,1155.04947 450.679672,1155.46613 450.679672,1156.03905 L450.679672,1158.49998 L453.999976,1158.49998 L453.531227,1162.05466 L450.679672,1162.05466 L450.679672,1170.99995 L447.007805,1170.99995 Z" id=""></path>
        </g>
    </g>
</svg>