<svg width="23" height="23" xmlns="http://www.w3.org/2000/svg"><path d="M3.5 7.79c.509 0 .921.413.921.921V22.08a.921.921 0 11-1.842 0V8.71c0-.508.412-.92.921-.92zM3.5 0c.509 0 .921.412.921.921v3.902h1.837a.742.742 0 110 1.483H.742a.742.742 0 010-1.483h1.837V.92C2.579.412 2.99 0 3.5 0zm16 12.242c.509 0 .921.412.921.921v8.916a.921.921 0 11-1.842 0v-8.916c0-.509.412-.921.921-.921zM19.5 0c.509 0 .921.412.921.921v8.353h1.837a.742.742 0 110 1.484h-5.516a.742.742 0 010-1.484h1.837V.921c0-.509.412-.921.921-.921zm-8 17.435c.509 0 .921.413.921.922v3.722a.921.921 0 11-1.842 0v-3.722c0-.51.412-.922.921-.922zM11.5 0c.509 0 .921.412.921.921v13.547h1.837a.742.742 0 110 1.484H8.742a.742.742 0 010-1.484h1.837V.92c0-.509.412-.921.921-.921z" fill="#ED672F" fill-rule="evenodd"/></svg>