<svg width="136" height="56" viewBox="0 0 136 56" fill="none" xmlns="http://www.w3.org/2000/svg">
<g opacity="0.3" filter="url(#filter0_f)">
<path d="M24.9971 33.4336C24.9971 32.6035 24.7334 31.9199 24.2061 31.3828C23.6787 30.8359 22.7998 30.3477 21.5693 29.918C20.3389 29.4785 19.3818 29.0732 18.6982 28.7021C16.4229 27.4814 15.2852 25.6748 15.2852 23.2822C15.2852 21.6611 15.7783 20.3281 16.7646 19.2832C17.751 18.2383 19.0889 17.6182 20.7783 17.4229V14.2295H23.1221V17.4521C24.8213 17.6963 26.1348 18.4189 27.0625 19.6201C27.9902 20.8115 28.4541 22.3643 28.4541 24.2783H24.9092C24.9092 23.0479 24.6309 22.0811 24.0742 21.3779C23.5273 20.665 22.7803 20.3086 21.833 20.3086C20.8955 20.3086 20.1631 20.5625 19.6357 21.0703C19.1084 21.5781 18.8447 22.3057 18.8447 23.2529C18.8447 24.1025 19.1035 24.7861 19.6211 25.3037C20.1484 25.8115 21.0371 26.2949 22.2871 26.7539C23.5371 27.2129 24.5186 27.6377 25.2314 28.0283C25.9443 28.4189 26.5449 28.8682 27.0332 29.376C27.5215 29.874 27.8975 30.4502 28.1611 31.1045C28.4248 31.7588 28.5566 32.5254 28.5566 33.4043C28.5566 35.0547 28.0488 36.3926 27.0332 37.418C26.0273 38.4434 24.6211 39.0488 22.8145 39.2344V42.0908H20.4854V39.249C18.5518 39.0342 17.0625 38.3408 16.0176 37.1689C14.9824 35.9971 14.4648 34.4443 14.4648 32.5107H18.0244C18.0244 33.7412 18.332 34.6934 18.9473 35.3672C19.5723 36.041 20.4512 36.3779 21.584 36.3779C22.6973 36.3779 23.542 36.1094 24.1182 35.5723C24.7041 35.0352 24.9971 34.3223 24.9971 33.4336ZM41.2861 39H37.7412V21.876L32.5117 23.6631V20.6602L40.832 17.5986H41.2861V39ZM58.3369 39H54.792V21.876L49.5625 23.6631V20.6602L57.8828 17.5986H58.3369V39ZM75.8418 30.0791C74.6504 31.3389 73.2588 31.9688 71.667 31.9688C69.792 31.9688 68.2979 31.3145 67.1846 30.0059C66.0713 28.6875 65.5146 26.959 65.5146 24.8203C65.5146 23.4141 65.7979 22.1396 66.3643 20.9971C66.9307 19.8545 67.7363 18.9658 68.7812 18.3311C69.8262 17.6963 71.0371 17.3789 72.4141 17.3789C74.5625 17.3789 76.2666 18.1797 77.5264 19.7812C78.7861 21.3828 79.416 23.5264 79.416 26.2119V27.208C79.416 31.0557 78.5469 33.9902 76.8086 36.0117C75.0703 38.0332 72.4775 39.0586 69.0303 39.0879H68.6055V36.1436H69.1182C71.2178 36.1143 72.8291 35.6113 73.9521 34.6348C75.0752 33.6484 75.7051 32.1299 75.8418 30.0791ZM72.4141 29.1855C73.127 29.1855 73.7959 28.9805 74.4209 28.5703C75.0459 28.1602 75.5293 27.5938 75.8711 26.8711V25.4795C75.8711 23.9072 75.5488 22.6426 74.9043 21.6855C74.2598 20.7285 73.4248 20.25 72.3994 20.25C71.374 20.25 70.5537 20.6748 69.9385 21.5244C69.333 22.3643 69.0303 23.4287 69.0303 24.7178C69.0303 26.0557 69.3379 27.1348 69.9531 27.9551C70.5684 28.7754 71.3887 29.1855 72.4141 29.1855ZM85.2461 35.25C85.9102 35.25 86.4229 35.4404 86.7842 35.8213C87.1455 36.1924 87.3262 36.6611 87.3262 37.2275C87.3262 37.7842 87.1455 38.248 86.7842 38.6191C86.4229 38.9805 85.9102 39.1611 85.2461 39.1611C84.6113 39.1611 84.1084 38.9805 83.7373 38.6191C83.3662 38.2578 83.1807 37.7939 83.1807 37.2275C83.1807 36.6611 83.3613 36.1924 83.7227 35.8213C84.084 35.4404 84.5918 35.25 85.2461 35.25ZM101.271 30.0791C100.08 31.3389 98.6885 31.9688 97.0967 31.9688C95.2217 31.9688 93.7275 31.3145 92.6143 30.0059C91.501 28.6875 90.9443 26.959 90.9443 24.8203C90.9443 23.4141 91.2275 22.1396 91.7939 20.9971C92.3604 19.8545 93.166 18.9658 94.2109 18.3311C95.2559 17.6963 96.4668 17.3789 97.8438 17.3789C99.9922 17.3789 101.696 18.1797 102.956 19.7812C104.216 21.3828 104.846 23.5264 104.846 26.2119V27.208C104.846 31.0557 103.977 33.9902 102.238 36.0117C100.5 38.0332 97.9072 39.0586 94.46 39.0879H94.0352V36.1436H94.5479C96.6475 36.1143 98.2588 35.6113 99.3818 34.6348C100.505 33.6484 101.135 32.1299 101.271 30.0791ZM97.8438 29.1855C98.5566 29.1855 99.2256 28.9805 99.8506 28.5703C100.476 28.1602 100.959 27.5938 101.301 26.8711V25.4795C101.301 23.9072 100.979 22.6426 100.334 21.6855C99.6895 20.7285 98.8545 20.25 97.8291 20.25C96.8037 20.25 95.9834 20.6748 95.3682 21.5244C94.7627 22.3643 94.46 23.4287 94.46 24.7178C94.46 26.0557 94.7676 27.1348 95.3828 27.9551C95.998 28.7754 96.8184 29.1855 97.8438 29.1855ZM118.322 30.0791C117.131 31.3389 115.739 31.9688 114.147 31.9688C112.272 31.9688 110.778 31.3145 109.665 30.0059C108.552 28.6875 107.995 26.959 107.995 24.8203C107.995 23.4141 108.278 22.1396 108.845 20.9971C109.411 19.8545 110.217 18.9658 111.262 18.3311C112.307 17.6963 113.518 17.3789 114.895 17.3789C117.043 17.3789 118.747 18.1797 120.007 19.7812C121.267 21.3828 121.896 23.5264 121.896 26.2119V27.208C121.896 31.0557 121.027 33.9902 119.289 36.0117C117.551 38.0332 114.958 39.0586 111.511 39.0879H111.086V36.1436H111.599C113.698 36.1143 115.31 35.6113 116.433 34.6348C117.556 33.6484 118.186 32.1299 118.322 30.0791ZM114.895 29.1855C115.607 29.1855 116.276 28.9805 116.901 28.5703C117.526 28.1602 118.01 27.5938 118.352 26.8711V25.4795C118.352 23.9072 118.029 22.6426 117.385 21.6855C116.74 20.7285 115.905 20.25 114.88 20.25C113.854 20.25 113.034 20.6748 112.419 21.5244C111.813 22.3643 111.511 23.4287 111.511 24.7178C111.511 26.0557 111.818 27.1348 112.434 27.9551C113.049 28.7754 113.869 29.1855 114.895 29.1855Z" fill="#2F3540"/>
</g>
<defs>
<filter id="filter0_f" x="0.873435" y="0.638083" width="134.614" height="55.0441" filterUnits="userSpaceOnUse" color-interpolation-filters="sRGB">
<feFlood flood-opacity="0" result="BackgroundImageFix"/>
<feBlend mode="normal" in="SourceGraphic" in2="BackgroundImageFix" result="shape"/>
<feGaussianBlur stdDeviation="6.7957" result="effect1_foregroundBlur"/>
</filter>
</defs>
</svg>
