<svg width="52" height="52" xmlns="http://www.w3.org/2000/svg" xmlns:xlink="http://www.w3.org/1999/xlink"><defs><filter x="-15.9%" y="-11.4%" width="131.8%" height="131.8%" filterUnits="objectBoundingBox" id="a"><feOffset dy="2" in="SourceAlpha" result="shadowOffsetOuter1"/><feGaussianBlur stdDeviation="2" in="shadowOffsetOuter1" result="shadowBlurOuter1"/><feColorMatrix values="0 0 0 0 0 0 0 0 0 0 0 0 0 0 0 0 0 0 0.5 0" in="shadowBlurOuter1"/></filter><circle id="b" cx="22" cy="22" r="22"/></defs><g fill="none" fill-rule="evenodd"><g transform="translate(4 2)"><use fill="#000" filter="url(#a)" xlink:href="#b"/><use fill="#FFF" xlink:href="#b"/></g><path d="M25.972 12C21.025 12 17 16.062 17 21.054c0 6.196 8.03 15.291 8.371 15.676.321.36.882.36 1.202 0 .342-.385 8.372-9.48 8.372-15.676 0-4.992-4.025-9.054-8.973-9.054zm0 13.61c-2.489 0-4.514-2.044-4.514-4.556s2.025-4.555 4.514-4.555c2.49 0 4.514 2.043 4.514 4.555 0 2.512-2.025 4.555-4.514 4.555v.001z" fill="#02C513"/></g></svg>