<?xml version="1.0" encoding="UTF-8"?>
<svg width="18px" height="18px" viewBox="0 0 18 18" version="1.1" xmlns="http://www.w3.org/2000/svg" xmlns:xlink="http://www.w3.org/1999/xlink">
    <!-- Generator: Sketch 56.2 (81672) - https://sketch.com -->
    <title></title>
    <desc>Created with Sketch.</desc>
    <g id="Admin-Settings-" stroke="none" stroke-width="1" fill="none" fill-rule="evenodd">
        <g id="Admin-View@2x-Copy-3" transform="translate(-555.000000, -1152.000000)" fill="#ED6730" fill-rule="nonzero">
            <path d="M563.749979,1156.5078 C564.557269,1156.5078 565.305965,1156.70962 565.996068,1157.11327 C566.68617,1157.51691 567.233044,1158.06379 567.636689,1158.75389 C568.040333,1159.44399 568.242156,1160.19269 568.242156,1160.99998 C568.242156,1161.80727 568.040333,1162.55596 567.636689,1163.24606 C567.233044,1163.93617 566.68617,1164.48304 565.996068,1164.88669 C565.305965,1165.29033 564.557269,1165.49215 563.749979,1165.49215 C562.942689,1165.49215 562.193993,1165.29033 561.503891,1164.88669 C560.813788,1164.48304 560.266914,1163.93617 559.86327,1163.24606 C559.459625,1162.55596 559.257802,1161.80727 559.257802,1160.99998 C559.257802,1160.19269 559.459625,1159.44399 559.86327,1158.75389 C560.266914,1158.06379 560.813788,1157.51691 561.503891,1157.11327 C562.193993,1156.70962 562.942689,1156.5078 563.749979,1156.5078 Z M563.749979,1163.92966 C564.557269,1163.92966 565.247371,1163.6432 565.820287,1163.07028 C566.393202,1162.49737 566.67966,1161.80727 566.67966,1160.99998 C566.67966,1160.19269 566.393202,1159.50258 565.820287,1158.92967 C565.247371,1158.35675 564.557269,1158.0703 563.749979,1158.0703 C562.942689,1158.0703 562.252587,1158.35675 561.679672,1158.92967 C561.106756,1159.50258 560.820299,1160.19269 560.820299,1160.99998 C560.820299,1161.80727 561.106756,1162.49737 561.679672,1163.07028 C562.252587,1163.6432 562.942689,1163.92966 563.749979,1163.92966 Z M569.492153,1156.31249 C569.466111,1156.59894 569.355435,1156.84634 569.160122,1157.05467 C568.96481,1157.26301 568.723925,1157.36717 568.437468,1157.36717 C568.151011,1157.36717 567.903615,1157.26301 567.695282,1157.05467 C567.48695,1156.84634 567.382783,1156.59894 567.382783,1156.31249 C567.382783,1156.02603 567.48695,1155.77863 567.695282,1155.5703 C567.903615,1155.36197 568.151011,1155.2578 568.437468,1155.2578 C568.723925,1155.2578 568.971321,1155.36197 569.179654,1155.5703 C569.387986,1155.77863 569.492153,1156.02603 569.492153,1156.31249 Z M572.460896,1157.36717 C572.486938,1158.09634 572.499958,1159.30727 572.499958,1160.99998 C572.499958,1162.69268 572.480427,1163.91013 572.441365,1164.65231 C572.402302,1165.3945 572.291626,1166.03903 572.109334,1166.5859 C571.87496,1167.23694 571.516888,1167.80335 571.035118,1168.28512 C570.553349,1168.76688 569.986944,1169.12496 569.335903,1169.35933 C568.78903,1169.54162 568.1445,1169.6523 567.402314,1169.69136 C566.660128,1169.73042 565.442683,1169.74996 563.749979,1169.74996 C562.057275,1169.74996 560.83983,1169.73042 560.097644,1169.69136 C559.355458,1169.6523 558.710929,1169.5286 558.164055,1169.32027 C557.513015,1169.11194 556.94661,1168.76688 556.46484,1168.28512 C555.983071,1167.80335 555.624999,1167.23694 555.390624,1166.5859 C555.208333,1166.03903 555.097656,1165.3945 555.058594,1164.65231 C555.019531,1163.91013 555,1162.69268 555,1160.99998 C555,1159.30727 555.019531,1158.08983 555.058594,1157.34764 C555.097656,1156.60546 555.208333,1155.96093 555.390624,1155.41405 C555.624999,1154.76301 555.983071,1154.19661 556.46484,1153.71484 C556.94661,1153.23307 557.513015,1152.875 558.164055,1152.64062 C558.710929,1152.45833 559.355458,1152.34765 560.097644,1152.30859 C560.83983,1152.26953 562.057275,1152.25 563.749979,1152.25 C565.442683,1152.25 566.660128,1152.26953 567.402314,1152.30859 C568.1445,1152.34765 568.78903,1152.45833 569.335903,1152.64062 C569.986944,1152.875 570.553349,1153.23307 571.035118,1153.71484 C571.516888,1154.19661 571.87496,1154.76301 572.109334,1155.41405 C572.291626,1155.96093 572.408813,1156.61197 572.460896,1157.36717 Z M570.5859,1166.15621 C570.74215,1165.71351 570.846317,1165.01038 570.8984,1164.04684 C570.924441,1163.47393 570.937462,1162.66664 570.937462,1161.62497 L570.937462,1160.37498 C570.937462,1159.30727 570.924441,1158.49998 570.8984,1157.95311 C570.846317,1156.96353 570.74215,1156.2604 570.5859,1155.84374 C570.273401,1155.03645 569.713507,1154.47655 568.906217,1154.16405 C568.489551,1154.00781 567.786428,1153.90364 566.796847,1153.85156 C566.223931,1153.82551 565.416642,1153.81249 564.374978,1153.81249 L563.124981,1153.81249 C562.083316,1153.81249 561.276027,1153.82551 560.703111,1153.85156 C559.739572,1153.90364 559.036449,1154.00781 558.593741,1154.16405 C557.786451,1154.47655 557.226557,1155.03645 556.914058,1155.84374 C556.757808,1156.2604 556.653642,1156.96353 556.601559,1157.95311 C556.575517,1158.52602 556.562496,1159.33331 556.562496,1160.37498 L556.562496,1161.62497 C556.562496,1162.66664 556.575517,1163.47393 556.601559,1164.04684 C556.653642,1165.01038 556.757808,1165.71351 556.914058,1166.15621 C557.252599,1166.9635 557.812493,1167.5234 558.593741,1167.8359 C559.036449,1167.99215 559.739572,1168.09631 560.703111,1168.1484 C561.276027,1168.17444 562.083316,1168.18746 563.124981,1168.18746 L564.374978,1168.18746 C565.442683,1168.18746 566.249973,1168.17444 566.796847,1168.1484 C567.786428,1168.09631 568.489551,1167.99215 568.906217,1167.8359 C569.713507,1167.49736 570.273401,1166.93746 570.5859,1166.15621 Z" id=""></path>
        </g>
    </g>
</svg>