<svg width="14" height="20" viewBox="0 0 14 20" fill="none" xmlns="http://www.w3.org/2000/svg">
<path fill-rule="evenodd" clip-rule="evenodd" d="M12.1212 9.51515V5.39394C12.1212 2.42424 9.69697 0 6.66667 0C3.63636 0 1.21212 2.42424 1.21212 5.39394V9.51515C0.424242 10.6061 0 11.9394 0 13.3333C0 17.0303 2.9697 20 6.66667 20C10.3636 20 13.3333 17.0303 13.3333 13.3333C13.3333 11.8788 12.9091 10.6061 12.1212 9.51515ZM7.27273 13.7576V15.1515H6.06061V13.7576C5.69697 13.5758 5.45455 13.1515 5.45455 12.7273C5.45455 12.0606 6 11.5152 6.66667 11.5152C7.33333 11.5152 7.87879 12.0606 7.87879 12.7273C7.87879 13.1515 7.63636 13.5758 7.27273 13.7576ZM9.63636 7.36207C9.65662 7.37257 9.67683 7.3832 9.69697 7.39394H9.63636V7.36207ZM9.63636 7.36207V5.39394C9.63636 3.69697 8.30303 2.36364 6.60606 2.36364C4.9697 2.36364 3.57576 3.69697 3.57576 5.39394V7.39394C4.54545 6.9697 5.57576 6.66667 6.66667 6.66667C7.7334 6.66667 8.74219 6.89847 9.63636 7.36207Z" fill="#2F3540"/>
</svg>
