<?xml version="1.0" encoding="UTF-8"?>
<svg width="14px" height="14px" viewBox="0 0 14 14" version="1.1" xmlns="http://www.w3.org/2000/svg" xmlns:xlink="http://www.w3.org/1999/xlink">
    <!-- Generator: Sketch 56.2 (81672) - https://sketch.com -->
    <title>Loupe Icon</title>
    <desc>Created with Sketch.</desc>
    <g id="Symbols" stroke="none" stroke-width="1" fill="none" fill-rule="evenodd" opacity="0.5">
        <g id="Search-bar" transform="translate(-536.000000, -13.000000)" fill="#2F3540" fill-rule="nonzero">
            <g id="Search-Bar">
                <path d="M548.508114,26.7405481 C548.849791,27.086484 549.402066,27.086484 549.743743,26.7405481 C550.085419,26.3946123 550.085419,25.8349846 549.743743,25.4890487 L547.047475,22.7943127 C547.810033,21.7722811 548.261472,20.5044719 548.261472,19.1312153 C548.261472,15.7450386 545.516648,13 542.130736,13 C538.744824,13 536,15.7450386 536,19.1312153 C536,22.517392 538.744824,25.2624306 542.130736,25.2624306 C543.509052,25.2624306 544.781133,24.8075531 545.805072,24.0397182 L548.508114,26.7405481 Z M537.751639,19.1312153 C537.751639,16.7125177 539.712227,14.7517758 542.130736,14.7517758 C544.549244,14.7517758 546.509833,16.7125177 546.509833,19.1312153 C546.509833,21.549913 544.549244,23.5106548 542.130736,23.5106548 C539.712227,23.5106548 537.751639,21.549913 537.751639,19.1312153 Z" id="Loupe-Icon"></path>
            </g>
        </g>
    </g>
</svg>