<?xml version="1.0" encoding="UTF-8"?>
<svg width="125px" height="41px" viewBox="0 0 125 41" version="1.1" xmlns="http://www.w3.org/2000/svg" xmlns:xlink="http://www.w3.org/1999/xlink">
    <title>ssl-icon</title>
    <g id="Page-1" stroke="none" stroke-width="1" fill="none" fill-rule="evenodd">
        <g id="ssl-icon" fill-rule="nonzero">
            <g id="_" fill="#77BC1F">
                <path d="M26.7873711,13.3952381 C27.796033,13.3845531 28.7667808,13.7796936 29.4819588,14.4920635 C30.2212955,15.1737366 30.6362418,16.1381247 30.6234945,17.1444444 L30.6234945,36.252381 C30.6362418,37.2587007 30.2212955,38.2230888 29.4819588,38.9047619 C28.7665198,39.6165502 27.7958042,40.0111058 26.7873711,40.0002283 L3.96262887,40.0002283 C2.95419583,40.0111058 1.98348022,39.6165502 1.26804124,38.9047619 C0.528704451,38.2230888 0.113758225,37.2587007 0.126505511,36.252381 L0.126505511,17.1428571 C0.11421022,16.1370879 0.529118285,15.1733656 1.26804124,14.4920635 C1.98321915,13.7796936 2.95396702,13.3845531 3.96262887,13.3952381 L5.83457474,13.3952381 L5.83457474,9.55555556 C5.82178142,7.87164215 6.26315876,6.21549855 7.11212629,4.76190476 C7.94344033,3.31665004 9.14011818,2.11608364 10.5818041,1.28095238 C13.5502765,-0.424807486 17.1997235,-0.424807486 20.1681959,1.28095238 C21.6098818,2.11608364 22.8065597,3.31665004 23.6378737,4.76190476 C24.4874329,6.21756763 24.9288118,7.87591068 24.9154253,9.56190476 L24.9154253,13.3952381 L26.7873711,13.3952381 Z M21.2635018,13.3952381 L21.2635018,9.55555556 C21.2670798,8.5267584 20.993271,7.51606651 20.4709407,6.63015873 C19.9509046,5.72838312 19.2030875,4.9795045 18.3025902,4.45873016 C16.5007038,3.39216904 14.2619766,3.39216904 12.4600902,4.45873016 C11.557266,4.97862008 10.8071862,5.7275747 10.2853995,6.63015873 C9.76306917,7.51606651 9.48926038,8.5267584 9.49283841,9.55555556 L9.49283841,13.3952381 L21.2635018,13.3952381 Z M15.375,30.5380952 C16.9292104,30.5538386 18.3366632,29.6211457 18.929757,28.1824237 C19.5228508,26.7437017 19.1822797,25.0883622 18.0695876,24.0015873 C17.3633241,23.2702955 16.3909138,22.8573789 15.375,22.8573789 C14.3590862,22.8573789 13.3866759,23.2702955 12.6804124,24.0015873 C11.5988002,25.0992125 11.2778532,26.738344 11.8654512,28.1637343 C12.4530492,29.5891246 13.8351753,30.5241924 15.375,30.5380952 Z" id="Shape"></path>
            </g>
            <ellipse id="Oval-Copy" fill="#77BC1F" cx="18.5451031" cy="30" rx="9.35180412" ry="9.36507937"></ellipse>
            <g id="check---material-copy" transform="translate(6.815722, 20.000000)" fill="#FFFFFF">
                <polygon id="Path" points="5.38917526 10.1047619 15.4542526 0 16.8015464 1.34761905 5.38917526 12.7761905 0.0935180412 7.47619048 1.41703608 6.12698413"></polygon>
            </g>
            <g id="SECURE-SSL-ENCRYPTIO" transform="translate(35.029639, 12.222222)">
                <g id="Group" fill="#313C3F">
                    <path d="M2.17310567,11.5698413 C2.17310567,11.5698413 4.02286082,13.2603175 6.07550258,13.2603175 C6.89814433,13.2603175 7.78735825,12.9428571 7.78735825,11.9587302 C7.78735825,10.015873 0.439059278,10.084127 0.439059278,5.05555556 C0.439059278,2.03968254 2.97514175,0.0492063492 6.21340206,0.0492063492 C9.72746134,0.0492063492 11.4630928,1.9015873 11.4630928,1.9015873 L9.77342784,5.16984127 C9.77342784,5.16984127 8.12972938,3.73015873 6.16743557,3.73015873 C5.34637887,3.73015873 4.43338918,4.0952381 4.43338918,5.00952381 C4.43338918,7.07301587 11.7816881,6.7015873 11.7816881,11.8666667 C11.7816881,14.5873016 9.70527062,16.9460317 6.03112113,16.9460317 C2.19688144,16.9460317 0.0729123711,14.6142857 0.0729123711,14.6142857 L2.17310567,11.5698413 Z" id="Path"></path>
                    <polygon id="Path" points="14.5206572 0.317460317 24.7458247 0.317460317 24.7458247 3.74603175 18.5149871 3.74603175 18.5149871 6.71746032 23.492049 6.71746032 23.492049 10.1587302 18.5149871 10.1587302 18.5149871 13.2380952 25.0660052 13.2380952 25.0660052 16.6666667 14.5206572 16.6666667"></polygon>
                    <path d="M35.3831057,0.0492063492 C39.4234021,0.0492063492 41.4998196,2.35873016 41.4998196,2.35873016 L39.6516495,5.37460317 C39.6516495,5.37460317 37.8256701,3.7047619 35.5653866,3.7047619 C32.4380799,3.7047619 30.9544716,6.01428571 30.9544716,8.36825397 C30.9544716,10.7904762 32.5522036,13.2888889 35.5653866,13.2888889 C38.0301418,13.2888889 39.9020876,11.2777778 39.9020876,11.2777778 L41.9626546,14.2031746 C41.9626546,14.2031746 39.6579897,16.9460317 35.3894459,16.9460317 C30.2760696,16.9460317 26.8301593,13.3111111 26.8301593,8.46507937 C26.8238273,3.70634921 30.4757861,0.0492063492 35.3831057,0.0492063492 Z" id="Path"></path>
                    <path d="M44.1468557,0.317460317 L48.1411856,0.317460317 L48.1411856,10.6492063 C48.1411856,12.3634921 49.260232,13.2777778 50.9720876,13.2777778 C52.6839433,13.2777778 53.8014046,12.3634921 53.8014046,10.6492063 L53.8014046,0.317460317 L57.7957345,0.317460317 L57.7957345,10.6492063 C57.7957345,14.3285714 55.1011469,16.9349206 50.9942784,16.9349206 C46.8398582,16.9349206 44.1468557,14.3285714 44.1468557,10.6492063 L44.1468557,0.317460317 Z" id="Path"></path>
                    <path d="M61.4033119,0.317460317 L67.0857216,0.317460317 C68.7516108,0.317460317 69.5504768,0.431746032 70.2558247,0.706349206 C72.1039948,1.41428571 73.2674227,3.08730159 73.2674227,5.46825397 C73.2674227,7.2047619 72.446366,9.1031746 70.8264433,9.92539683 L70.8264433,9.97142857 C71.051798,10.2857144 71.2572029,10.6138746 71.4414433,10.9539683 L74.6115464,16.668254 L70.1670619,16.668254 L67.2680026,11.1603175 L65.3960567,11.1603175 L65.3960567,16.6666667 L61.4033119,16.6666667 L61.4033119,0.317460317 Z M67.1316881,7.72380952 C68.4092397,7.72380952 69.2081057,7.01428571 69.2081057,5.71269841 C69.2081057,4.47777778 68.7516108,3.74603175 66.7433505,3.74603175 L65.3960567,3.74603175 L65.3960567,7.73015873 L67.1316881,7.72380952 Z" id="Shape"></path>
                    <polygon id="Path" points="76.968518 0.317460317 87.1952706 0.317460317 87.1952706 3.74603175 80.9628479 3.74603175 80.9628479 6.71746032 85.9399098 6.71746032 85.9399098 10.1587302 80.9628479 10.1587302 80.9628479 13.2380952 87.513866 13.2380952 87.513866 16.6666667 76.968518 16.6666667"></polygon>
                </g>
                <g id="Group" transform="translate(1.268041, 19.523810)" fill="#A0A2A2">
                    <path d="M0.99382732,5.34920635 C0.99382732,5.34920635 1.82756443,6.11269841 2.75481959,6.11269841 C3.12572165,6.11269841 3.52832474,5.96825397 3.52832474,5.52380952 C3.52832474,4.64761905 0.210811856,4.67777778 0.210811856,2.40793651 C0.210811856,1.04603175 1.35363402,0.147619048 2.8166366,0.147619048 C4.40168814,0.147619048 5.19421392,0.984126984 5.19421392,0.984126984 L4.43180412,2.46031746 C4.43180412,2.46031746 3.69,1.80952381 2.80395619,1.80952381 C2.43305412,1.80952381 2.02094072,1.96825397 2.02094072,2.38730159 C2.02094072,3.31587302 5.33845361,3.15079365 5.33845361,5.48253968 C5.33845361,6.71111111 4.40168814,7.77301587 2.74213918,7.77301587 C1.74061593,7.79117145 0.772358671,7.41301507 0.0475515464,6.72063492 L0.99382732,5.34920635 Z" id="Path"></path>
                    <path d="M6.9742268,5.34920635 C6.9742268,5.34920635 7.80954897,6.11269841 8.73680412,6.11269841 C9.10770619,6.11269841 9.51030928,5.96825397 9.51030928,5.52380952 C9.51030928,4.64761905 6.19121134,4.67777778 6.19121134,2.40793651 C6.19121134,1.04603175 7.33561856,0.147619048 8.79862113,0.147619048 C10.3836727,0.147619048 11.1682732,0.984126984 11.1682732,0.984126984 L10.4058634,2.46031746 C10.4058634,2.46031746 9.66405928,1.80952381 8.77801546,1.80952381 C8.4071134,1.80952381 7.995,1.96825397 7.995,2.38730159 C7.995,3.31587302 11.3125129,3.15079365 11.3125129,5.48253968 C11.3125129,6.71111111 10.3757474,7.77301587 8.71619845,7.77301587 C7.7146752,7.79117145 6.74641795,7.41301507 6.02161082,6.72063492 L6.9742268,5.34920635 Z" id="Path"></path>
                    <polygon id="Path" points="12.5425129 0.273015873 14.3447165 0.273015873 14.3447165 6.1015873 17.3563144 6.1015873 17.3563144 7.64920635 12.5425129 7.64920635"></polygon>
                    <polygon id="Path" points="20.7023582 0.273015873 25.3180284 0.273015873 25.3180284 1.82063492 22.507732 1.82063492 22.507732 3.16190476 24.75375 3.16190476 24.75375 4.70952381 22.507732 4.70952381 22.507732 6.1015873 25.4654381 6.1015873 25.4654381 7.64920635 20.7102835 7.64920635"></polygon>
                    <path d="M26.7604253,0.273015873 L28.5832345,0.273015873 L30.6231959,3.71904762 C30.85155,4.12726901 31.0579023,4.54744779 31.241366,4.97777778 L31.2619716,4.97777778 C31.2619716,4.97777778 31.179549,4.18412698 31.179549,3.71904762 L31.179549,0.273015873 L32.9833376,0.273015873 L32.9833376,7.64920635 L31.1700387,7.64920635 L29.118982,4.21428571 C28.8909562,3.80589162 28.6846125,3.38573056 28.5008119,2.95555556 L28.4802062,2.95555556 C28.4802062,2.95555556 28.5626289,3.74920635 28.5626289,4.21428571 L28.5626289,7.64920635 L26.7604253,7.64920635 L26.7604253,0.273015873 Z" id="Path"></path>
                    <path d="M38.0729381,0.147619048 C39.8957474,0.147619048 40.8340979,1.19047619 40.8340979,1.19047619 L39.9987758,2.55238095 C39.9987758,2.55238095 39.174549,1.8 38.1553608,1.8 C36.7430799,1.8 36.0741881,2.84126984 36.0741881,3.9047619 C36.0741881,4.9984127 36.7953866,6.12698413 38.1553608,6.12698413 C39.2648969,6.12698413 40.1128995,5.21904762 40.1128995,5.21904762 L41.0401546,6.53968254 C40.2643208,7.34511023 39.190326,7.79324329 38.0729381,7.77777778 C35.7651031,7.77777778 34.2085825,6.13809524 34.2085825,3.95079365 C34.2085825,1.8 35.8570361,0.147619048 38.0729381,0.147619048 Z" id="Path"></path>
                    <path d="M42.1306701,0.273015873 L44.6984536,0.273015873 C45.4513531,0.273015873 45.8079897,0.323809524 46.125,0.447619048 C46.9587371,0.765079365 47.4849742,1.52063492 47.4849742,2.59365079 C47.4849742,3.37777778 47.1140722,4.23492063 46.3754381,4.60634921 L46.3754381,4.62698413 C46.4775316,4.76865146 46.5707021,4.91655764 46.6544072,5.06984127 L48.0809536,7.64920635 L46.0885438,7.64920635 L44.7792912,5.16349206 L43.9344588,5.16349206 L43.9344588,7.64920635 L42.1306701,7.64920635 L42.1306701,0.273015873 Z M44.7174742,3.61587302 C45.294433,3.61587302 45.6558247,3.2984127 45.6558247,2.70793651 C45.6558247,2.15079365 45.449768,1.82063492 44.5462887,1.82063492 L43.9376289,1.82063492 L43.9376289,3.61587302 L44.7174742,3.61587302 Z" id="Shape"></path>
                    <path d="M50.5488789,4.62698413 L48.1174098,0.273015873 L50.1684665,0.273015873 L51.0022036,2.04761905 C51.2399613,2.55238095 51.446018,3.10952381 51.446018,3.10952381 L51.4666237,3.10952381 C51.4666237,3.10952381 51.6726804,2.55238095 51.9088531,2.04761905 L52.7330799,0.273015873 L54.7841366,0.273015873 L52.3526675,4.62698413 L52.3526675,7.64285714 L50.5488789,7.64285714 L50.5488789,4.62698413 Z" id="Path"></path>
                    <path d="M55.6067784,0.273015873 L58.6675129,0.273015873 C60.0940593,0.273015873 61.068866,1.32380952 61.068866,2.81269841 C61.068866,4.3015873 60.1003995,5.37142857 58.6675129,5.37142857 L57.410567,5.37142857 L57.410567,7.65079365 L55.6067784,7.65079365 L55.6067784,0.273015873 Z M58.301366,3.82222222 C58.9353866,3.82222222 59.2397165,3.3984127 59.2397165,2.81111111 C59.2397165,2.22380952 58.9227062,1.82063492 58.333067,1.82063492 L57.410567,1.82063492 L57.410567,3.82222222 L58.301366,3.82222222 Z" id="Shape"></path>
                    <polygon id="Path" points="63.5510567 1.82063492 61.314549 1.82063492 61.314549 0.273015873 67.589768 0.273015873 67.589768 1.82063492 65.3532603 1.82063492 65.3532603 7.64920635 63.5510567 7.64920635"></polygon>
                    <polygon id="Path" points="68.4964175 0.273015873 70.2986211 0.273015873 70.2986211 7.64920635 68.4964175 7.64920635"></polygon>
                    <path d="M75.3787113,0.147619048 C77.5977835,0.147619048 79.2319716,1.8 79.2319716,3.91428571 C79.2319716,6.08095238 77.6041237,7.77301587 75.3787113,7.77301587 C73.153299,7.77301587 71.525451,6.08095238 71.525451,3.91428571 C71.525451,1.8 73.153299,0.147619048 75.3787113,0.147619048 Z M75.3787113,6.12222222 C76.4882474,6.12222222 77.366366,5.16984127 77.366366,3.91428571 C77.366366,2.70793651 76.4803222,1.8 75.3787113,1.8 C74.2771005,1.8 73.3878866,2.70793651 73.3878866,3.91428571 C73.3878866,5.17301587 74.2755155,6.12222222 75.3787113,6.12222222 Z" id="Shape"></path>
                    <path d="M80.4572165,0.273015873 L82.2816108,0.273015873 L84.3247423,3.71904762 C84.5530963,4.12726901 84.7594487,4.54744779 84.9429124,4.97777778 L84.9587629,4.97777778 C84.9587629,4.97777778 84.8763402,4.18412698 84.8763402,3.71904762 L84.8763402,0.273015873 L86.6785438,0.273015873 L86.6785438,7.64920635 L84.8668299,7.64920635 L82.8173582,4.21428571 C82.5893325,3.80589162 82.3829888,3.38573056 82.1991881,2.95555556 L82.1785825,2.95555556 C82.1785825,2.95555556 82.2610052,3.74920635 82.2610052,4.21428571 L82.2610052,7.64920635 L80.4572165,7.64920635 L80.4572165,0.273015873 Z" id="Path"></path>
                </g>
            </g>
        </g>
    </g>
</svg>