<svg width="42" height="42" viewBox="0 0 42 42" fill="none" xmlns="http://www.w3.org/2000/svg">
<rect width="42" height="42" rx="21" fill="#F1F5F9"/>
<g clip-path="url(#clip0_4579_12598)">
<path d="M28.7782 13.2218C26.7006 11.1442 23.9382 10 21 10C18.0618 10 15.2994 11.1442 13.2218 13.2218C11.1442 15.2994 10 18.0618 10 21C10 23.9382 11.1442 26.7006 13.2218 28.7782C15.2994 30.8558 18.0618 32 21 32C23.9382 32 26.7006 30.8558 28.7782 28.7782C30.8558 26.7006 32 23.9382 32 21C32 18.0618 30.8558 15.2994 28.7782 13.2218ZM14.7741 28.4464C15.1373 25.321 17.8243 22.9081 21 22.9081C22.6741 22.9081 24.2483 23.5603 25.4325 24.7443C26.4329 25.7449 27.0638 27.0512 27.2261 28.4462C25.5392 29.8589 23.3673 30.7109 21 30.7109C18.6327 30.7109 16.4609 29.8591 14.7741 28.4464ZM21 21.5804C19.1579 21.5804 17.659 20.0815 17.659 18.2394C17.659 16.3971 19.1579 14.8984 21 14.8984C22.8421 14.8984 24.341 16.3971 24.341 18.2394C24.341 20.0815 22.8421 21.5804 21 21.5804ZM28.3356 27.3565C28.0071 26.0322 27.3221 24.8111 26.3439 23.8329C25.5517 23.0407 24.6144 22.4463 23.5922 22.0739C24.821 21.2405 25.6301 19.8326 25.6301 18.2394C25.6301 15.6865 23.5529 13.6094 21 13.6094C18.4471 13.6094 16.3699 15.6865 16.3699 18.2394C16.3699 19.8335 17.1796 21.2419 18.4095 22.0751C17.469 22.4178 16.5987 22.9477 15.85 23.6453C14.7657 24.655 14.0127 25.9426 13.6636 27.3555C12.185 25.651 11.2891 23.4282 11.2891 21C11.2891 15.6454 15.6454 11.2891 21 11.2891C26.3546 11.2891 30.7109 15.6454 30.7109 21C30.7109 23.4287 29.8146 25.652 28.3356 27.3565Z" fill="#475569"/>
</g>
<defs>
<clipPath id="clip0_4579_12598">
<rect width="22" height="22" fill="white" transform="translate(10 10)"/>
</clipPath>
</defs>
</svg>
