<svg width="42" height="42" viewBox="0 0 42 42" fill="none" xmlns="http://www.w3.org/2000/svg">
<rect width="42" height="42" rx="21" fill="#F1F5F9"/>
<g clip-path="url(#clip0_4050_438)">
<path d="M26.1839 18.4362V18.4931L26.2402 18.5012C29.173 18.9226 31.4344 21.4516 31.4344 24.499C31.4344 27.8404 28.7159 30.5589 25.3745 30.5589C24.3918 30.5589 23.4632 30.3236 22.6416 29.9067L22.6169 29.8941L22.5906 29.9031C21.3417 30.3322 19.8944 30.5589 18.3748 30.5589C16.3796 30.5589 14.4934 30.1635 13.0632 29.4484C11.4407 28.6371 10.5656 27.4983 10.5656 26.2497V22.7498V19.2501V15.7502C10.5656 14.5016 11.4407 13.3627 13.0632 12.5515C14.4933 11.8364 16.3796 11.441 18.3748 11.441C20.3698 11.441 22.256 11.8364 23.6862 12.5515L23.7155 12.4928L23.6862 12.5515C25.3087 13.3627 26.1839 14.5016 26.1839 15.7502V18.4362ZM12.2869 21.9974L12.1845 21.9282V22.0518V22.7499C12.1845 23.0833 12.3605 23.4179 12.6675 23.7288C12.975 24.0402 13.4194 24.3337 13.9706 24.5865C15.0734 25.0923 16.6141 25.4402 18.3748 25.4402C18.6897 25.4402 19.0027 25.4291 19.3118 25.407L19.3817 25.402L19.3721 25.3326C19.3344 25.06 19.3145 24.7817 19.3145 24.499C19.3145 24.1952 19.3373 23.8965 19.3806 23.6045L19.3926 23.5242L19.3116 23.5293C19.0018 23.5489 18.6892 23.5593 18.3748 23.5593C16.3797 23.5593 14.4934 23.1638 13.0632 22.4488L13.0339 22.5075L13.0632 22.4488C12.7817 22.308 12.5231 22.157 12.2869 21.9974ZM19.8905 21.8527L19.9258 21.8485L19.9416 21.8167C20.3198 21.0537 20.8539 20.3813 21.5024 19.8412L21.4458 19.7268C20.489 19.9441 19.4479 20.0595 18.3748 20.0595C16.3797 20.0595 14.4934 19.664 13.0632 18.9489L13.0632 18.9489C12.7817 18.8082 12.5231 18.6572 12.2869 18.4976L12.1845 18.4284V18.552V19.2501C12.1845 19.5835 12.3605 19.9181 12.6675 20.229C12.975 20.5404 13.4194 20.8339 13.9706 21.0867C15.0734 21.5925 16.6141 21.9404 18.3748 21.9403C18.8886 21.9403 19.3965 21.9108 19.8905 21.8527ZM12.2869 25.4973L12.1845 25.4281V25.5517V26.2497C12.1845 26.5832 12.3605 26.9177 12.6675 27.2286C12.975 27.5401 13.4194 27.8335 13.9706 28.0863C15.0734 28.5921 16.6141 28.9401 18.3748 28.9401C19.2353 28.9401 20.084 28.8546 20.8683 28.694L20.9817 28.6708L20.9036 28.5854C20.4828 28.1254 20.1321 27.6005 19.868 27.0277L19.8485 26.9853L19.802 26.9898C19.3333 27.0355 18.8557 27.0592 18.3748 27.0592C16.3796 27.0592 14.4934 26.6637 13.0632 25.9486L13.0339 26.0073L13.0632 25.9486C12.7817 25.8079 12.5231 25.6569 12.2869 25.4973ZM25.3558 20.0585V20.0585L25.3538 20.0585C22.9145 20.0697 20.9334 22.0571 20.9334 24.499C20.9334 26.9479 22.9256 28.9401 25.3744 28.9401C27.8233 28.9401 29.8155 26.9479 29.8155 24.499C29.8155 22.0571 27.8344 20.0697 25.395 20.0585L25.3931 20.0585C25.3877 20.0587 25.3826 20.0591 25.3799 20.0593L25.3744 20.0596L25.369 20.0593C25.3663 20.0591 25.3611 20.0587 25.3558 20.0585ZM24.5649 15.7502C24.5649 15.4167 24.389 15.0822 24.082 14.7713C23.7745 14.4598 23.3301 14.1664 22.7789 13.9136C21.6761 13.4078 20.1355 13.0599 18.3748 13.0599C16.6141 13.0599 15.0734 13.4078 13.9706 13.9136C13.4194 14.1664 12.975 14.4598 12.6675 14.7713C12.3605 15.0822 12.1845 15.4167 12.1845 15.7502C12.1845 16.0837 12.3605 16.4182 12.6675 16.7291C12.975 17.0406 13.4194 17.334 13.9706 17.5869C15.0734 18.0927 16.6141 18.4406 18.3748 18.4406C20.1355 18.4406 21.6761 18.0927 22.7789 17.5869C23.3301 17.334 23.7745 17.0406 24.082 16.7291C24.389 16.4182 24.5649 16.0837 24.5649 15.7502Z" fill="#475569" stroke="#F1F5F9" stroke-width="0.13125"/>
<path d="M25.4866 21.5844V27.5933" stroke="#475569" stroke-width="0.7875" stroke-miterlimit="10"/>
<path d="M25.1528 24.5888H25.8205C26.3736 24.5888 26.822 25.0372 26.822 25.5903C26.822 26.1434 26.3736 26.5918 25.8205 26.5918H25.1528C24.5997 26.5918 24.1514 26.1434 24.1514 25.5903" stroke="#475569" stroke-width="0.7875" stroke-miterlimit="10"/>
<path d="M25.8205 24.5888H25.1528C24.5997 24.5888 24.1514 24.1404 24.1514 23.5873C24.1514 23.0342 24.5997 22.5858 25.1528 22.5858H25.8205C26.3736 22.5858 26.822 23.0342 26.822 23.5873" stroke="#475569" stroke-width="0.7875" stroke-miterlimit="10"/>
</g>
<defs>
<clipPath id="clip0_4050_438">
<rect width="21" height="21" fill="white" transform="translate(10.5 10.5)"/>
</clipPath>
</defs>
</svg>
