<svg width="42" height="42" viewBox="0 0 42 42" fill="none" xmlns="http://www.w3.org/2000/svg">
<rect width="42" height="42" rx="21" fill="#F1F5F9"/>
<path d="M20.6403 21.4268L20.6423 21.429L23.4582 24.1818C23.5554 24.2762 23.686 24.3282 23.8214 24.3264C23.9568 24.3247 24.086 24.2693 24.1807 24.1725C24.2753 24.0756 24.3278 23.9452 24.3264 23.8098C24.3251 23.6743 24.2702 23.545 24.1736 23.45L21.5117 20.8477M20.6403 21.4268L20.4883 21.0631M20.6403 21.4268C20.6302 21.4168 20.6206 21.4062 20.6113 21.3953L20.6403 21.4268ZM21.5117 20.8477H21.6117V20.8056M21.5117 20.8477L21.5816 20.7762L21.6117 20.8056M21.5117 20.8477V18.2364C21.5117 18.1007 21.4578 17.9706 21.3618 17.8746C21.2659 17.7786 21.1357 17.7247 21 17.7247C20.8643 17.7247 20.7341 17.7786 20.6382 17.8746C20.5422 17.9706 20.4883 18.1007 20.4883 18.2364V21.0631M21.6117 20.8056L24.2435 23.3785L24.2437 23.3787C24.3592 23.4922 24.4249 23.6469 24.4264 23.8088C24.428 23.9707 24.3654 24.1266 24.2522 24.2424C24.139 24.3581 23.9846 24.4243 23.8227 24.4264C23.6608 24.4285 23.5047 24.3663 23.3885 24.2535L23.3883 24.2533L20.5724 21.5005L20.5716 21.4997L20.5716 21.4997L20.5717 21.4995L20.5699 21.4979L20.5699 21.4978C20.5576 21.4857 20.5465 21.4733 20.5364 21.4616M21.6117 20.8056V18.2364C21.6117 18.0742 21.5473 17.9186 21.4325 17.8039C21.3178 17.6892 21.1622 17.6247 21 17.6247C20.8378 17.6247 20.6822 17.6892 20.5674 17.8039C20.4527 17.9186 20.3883 18.0742 20.3883 18.2364V21.063M20.5364 21.4616L20.5371 21.4624M20.5364 21.4616C20.5361 21.4612 20.5357 21.4608 20.5354 21.4604L20.5335 21.4582L20.5335 21.4582L20.5354 21.4604L20.5371 21.4624M20.5364 21.4616L20.5356 21.4608C20.5345 21.4596 20.5327 21.4576 20.5306 21.455L20.6084 21.3921L20.532 21.4566C20.4391 21.3465 20.3882 21.2071 20.3883 21.063M20.5371 21.4624L20.5378 21.463L20.5379 21.4632C20.5378 21.4631 20.5375 21.4627 20.5371 21.4624ZM20.3883 21.063C20.3883 21.063 20.3883 21.063 20.3883 21.063L20.4883 21.0631M20.3883 21.063V21.0631H20.4883" fill="#475569" stroke="#475569" stroke-width="0.2"/>
<path d="M21.6117 14.6859V14.6859V13.4509C21.6117 13.2887 21.5473 13.1331 21.4325 13.0184C21.3178 12.9037 21.1622 12.8392 21 12.8392C20.8378 12.8392 20.6822 12.9037 20.5674 13.0184C20.4527 13.1331 20.3883 13.2887 20.3883 13.4509V14.6859V14.6859C20.3883 14.8481 20.4527 15.0037 20.5675 15.1184C20.6822 15.2331 20.8378 15.2976 21 15.2976C21.1622 15.2976 21.3178 15.2331 21.4325 15.1184C21.5472 15.0037 21.6117 14.8481 21.6117 14.6859Z" fill="#475569" stroke="#475569" stroke-width="0.2"/>
<path d="M20.3883 28.5491C20.3883 28.7113 20.4527 28.8669 20.5674 28.9816C20.6822 29.0963 20.8378 29.1608 21 29.1608C21.1622 29.1608 21.3178 29.0963 21.4325 28.9816C21.5473 28.8669 21.6117 28.7113 21.6117 28.5491V27.3141C21.6117 27.1518 21.5473 26.9963 21.4325 26.8815C21.3178 26.7668 21.1622 26.7024 21 26.7024C20.8378 26.7024 20.6822 26.7668 20.5674 26.8815C20.4527 26.9963 20.3883 27.1518 20.3883 27.3141V28.5491Z" fill="#475569" stroke="#475569" stroke-width="0.2"/>
<path d="M27.3142 21.6117H27.3142H28.5491C28.7114 21.6117 28.867 21.5473 28.9817 21.4325C29.0964 21.3178 29.1608 21.1622 29.1608 21C29.1608 20.8378 29.0964 20.6822 28.9817 20.5674C28.867 20.4527 28.7114 20.3883 28.5491 20.3883H27.3142H27.3142C27.1519 20.3883 26.9963 20.4527 26.8816 20.5675C26.7669 20.6822 26.7025 20.8378 26.7025 21C26.7025 21.1622 26.7669 21.3178 26.8816 21.4325C26.9963 21.5472 27.1519 21.6117 27.3142 21.6117Z" fill="#475569" stroke="#475569" stroke-width="0.2"/>
<path d="M14.6859 20.3883H13.4509C13.2887 20.3883 13.1331 20.4527 13.0184 20.5674C12.9037 20.6822 12.8392 20.8378 12.8392 21C12.8392 21.1622 12.9037 21.3178 13.0184 21.4325C13.1331 21.5473 13.2887 21.6117 13.4509 21.6117H14.6859C14.8481 21.6117 15.0037 21.5473 15.1184 21.4325C15.2332 21.3178 15.2976 21.1622 15.2976 21C15.2976 20.8378 15.2332 20.6822 15.1184 20.5674C15.0037 20.4527 14.8481 20.3883 14.6859 20.3883Z" fill="#475569" stroke="#475569" stroke-width="0.2"/>
<path d="M11.7091 18.6193H11.709C11.5742 18.6192 11.4409 18.5909 11.3176 18.5364C11.1944 18.4818 11.0839 18.4021 10.9932 18.3024C10.9024 18.2027 10.8335 18.0852 10.7908 17.9573C10.7481 17.8295 10.7325 17.6941 10.745 17.5599L11.7091 18.6193ZM11.7091 18.6193C11.7391 18.6193 11.7695 18.618 11.8 18.6151L11.8002 18.6151L15.5655 18.2631C15.7487 18.246 15.9232 18.1771 16.0687 18.0644C16.2142 17.9518 16.3245 17.8 16.3869 17.627C16.4494 17.4539 16.4612 17.2666 16.4211 17.0871C16.381 16.9075 16.2907 16.7431 16.1606 16.613L16.1606 16.613M11.7091 18.6193L16.1606 16.613M30.3767 20.9995C30.376 21.0802 30.3913 21.1602 30.4216 21.2349L30.5143 21.1972L30.4216 21.2349C30.4521 21.3097 30.497 21.3778 30.5539 21.4352C30.6107 21.4926 30.6784 21.5381 30.753 21.5692C30.8276 21.6003 30.9076 21.6163 30.9883 21.6163C31.0691 21.6163 31.1491 21.6003 31.2237 21.5692C31.2983 21.5381 31.366 21.4926 31.4228 21.4352C31.4797 21.3778 31.5246 21.3097 31.5551 21.2349L31.4624 21.1972L31.5551 21.2349C31.5853 21.1604 31.6006 21.0807 31.6 21.0003C31.6038 19.6076 31.3314 18.228 30.7984 16.9414C30.2655 15.6548 29.4827 14.4867 28.4954 13.5047C27.4859 12.4951 26.2828 11.6999 24.9584 11.1668C23.634 10.6336 22.2155 10.3735 20.7881 10.4021C19.3607 10.4307 17.9538 10.7474 16.6518 11.3331C15.3814 11.9046 14.2365 12.7208 13.2822 13.7347L12.747 13.1995C12.747 13.1995 12.747 13.1995 12.747 13.1995C12.6169 13.0694 12.4525 12.9791 12.2729 12.939C12.0934 12.8989 11.9061 12.9107 11.733 12.9731C11.56 13.0356 11.4082 13.1459 11.2956 13.2914C11.183 13.4369 11.1141 13.6114 11.0969 13.7946C11.0969 13.7946 11.0969 13.7946 11.0969 13.7946L10.745 17.5599L13.7512 15.0276C13.7512 15.0276 13.7513 15.0276 13.7513 15.0276C13.7956 14.9833 13.8939 14.8824 13.9133 14.86L13.9133 14.86C14.7935 13.8441 15.8819 13.0293 17.1046 12.4708C18.3273 11.9124 19.6558 11.6234 21.0001 11.6234C26.1701 11.6234 30.3764 15.8296 30.3767 20.9995ZM30.3767 20.9995C30.3767 20.9994 30.3767 20.9992 30.3767 20.9991L30.4767 21H30.3767C30.3767 20.9998 30.3767 20.9997 30.3767 20.9995ZM16.1606 16.613L15.1563 15.609M16.1606 16.613L15.1563 15.609M15.1563 15.609C15.1563 15.609 15.1563 15.609 15.1563 15.609M15.1563 15.609L15.1563 15.609M15.1563 15.609C15.0416 15.4943 14.886 15.4298 14.7238 15.4298M15.1563 15.609L14.7238 15.4298M14.7238 15.4298C14.5616 15.4298 14.406 15.4943 14.2913 15.609M14.7238 15.4298L14.2913 15.609M14.2913 15.609C14.1765 15.7237 14.1121 15.8793 14.1121 16.0415M14.2913 15.609L14.1121 16.0415M14.1121 16.0415C14.1121 16.2037 14.1765 16.3593 14.2913 16.474M14.1121 16.0415L14.2913 16.474M14.2913 16.474L14.9126 17.0954M14.2913 16.474L14.9126 17.0954M14.9126 17.0954L11.9914 17.3685M14.9126 17.0954L11.9914 17.3685M11.9914 17.3685L12.2651 14.4399L12.8872 15.0286L11.9914 17.3685Z" fill="#475569" stroke="#475569" stroke-width="0.2"/>
<path d="M11.6234 21.0004C11.6241 20.9198 11.6088 20.8398 11.5784 20.7651C11.548 20.6903 11.5031 20.6222 11.4462 20.5648C11.3893 20.5074 11.3216 20.4619 11.2471 20.4308C11.1725 20.3997 11.0925 20.3837 11.0117 20.3837C10.9309 20.3837 10.8509 20.3997 10.7764 20.4308C10.7018 20.4619 10.6341 20.5074 10.5772 20.5648C10.5204 20.6222 10.4754 20.6903 10.445 20.7651C10.4146 20.84 10.3993 20.9201 10.4 21.0009L10.5 21L10.4 21C10.3999 23.1326 11.0431 25.2157 12.2456 26.977C13.4481 28.7382 15.1539 30.0959 17.1401 30.8724C19.1263 31.6489 21.3006 31.8082 23.3788 31.3295C25.4232 30.8586 27.281 29.7918 28.7179 28.2653L28.3276 27.0175M11.6234 21.0004C11.6234 21.0006 11.6234 21.0007 11.6234 21.0009L11.5234 21H11.6234C11.6234 21.0001 11.6234 21.0003 11.6234 21.0004ZM11.6234 21.0004C11.6236 26.1704 15.83 30.3766 21 30.3766C22.3443 30.3767 23.6729 30.0877 24.8956 29.5292C26.1184 28.9708 27.2069 28.156 28.0871 27.14L28.1627 27.2054L28.0871 27.14C28.0898 27.1368 28.0953 27.1304 28.1027 27.1218C28.1392 27.0789 28.223 26.9807 28.2569 26.9468M28.2569 26.9468L28.3276 27.0175M28.2569 26.9468C28.2569 26.9468 28.2569 26.9468 28.2569 26.9468L28.3276 27.0175M28.2569 26.9468C28.4918 26.7118 28.8714 26.6886 29.1142 26.9314L29.7356 27.5527M28.3276 27.0175C28.5274 26.8176 28.8437 26.8023 29.0435 27.0021L29.7235 27.6821L29.7356 27.5527M29.7356 27.5527L30.0087 24.6315M29.7356 27.5527L29.8274 27.6446L30.0087 24.6315M30.0087 24.6315L27.0874 24.9046M26.4346 23.7369L26.4439 23.8364L29.9349 28.9854C30.0365 28.9852 30.1374 28.9674 30.233 28.9328L30.2664 29.027C30.2665 29.027 30.2666 29.027 30.2667 29.0269C30.4404 28.9653 30.5927 28.8551 30.7055 28.7095C30.8183 28.5637 30.8869 28.3885 30.903 28.2049C30.903 28.2049 30.903 28.2049 30.903 28.2048L31.255 24.4402C31.2683 24.2983 31.2501 24.1553 31.2018 24.0212C31.1534 23.8872 31.0762 23.7655 30.9754 23.6647C30.8747 23.564 30.7529 23.4866 30.6189 23.4383C30.4849 23.39 30.342 23.3716 30.2001 23.3849L30.2094 23.4845L30.2001 23.3849L26.4346 23.7369Z" fill="#475569" stroke="#475569" stroke-width="0.2"/>
<path d="M24.3442 27.4024C24.6815 27.4024 24.9549 27.129 24.9549 26.7917C24.9549 26.4544 24.6815 26.181 24.3442 26.181C24.0069 26.181 23.7335 26.4544 23.7335 26.7917C23.7335 27.129 24.0069 27.4024 24.3442 27.4024Z" fill="#475569" stroke="#475569" stroke-width="0.2"/>
<path d="M17.6559 27.4024C17.9932 27.4024 18.2666 27.129 18.2666 26.7917C18.2666 26.4544 17.9932 26.181 17.6559 26.181C17.3187 26.181 17.0453 26.4544 17.0453 26.7917C17.0453 27.129 17.3187 27.4024 17.6559 27.4024Z" fill="#475569" stroke="#475569" stroke-width="0.2"/>
<path d="M15.2084 24.9547C15.5457 24.9547 15.8191 24.6813 15.8191 24.344C15.8191 24.0067 15.5457 23.7333 15.2084 23.7333C14.8712 23.7333 14.5978 24.0067 14.5978 24.344C14.5978 24.6813 14.8712 24.9547 15.2084 24.9547Z" fill="#475569" stroke="#475569" stroke-width="0.2"/>
<path d="M26.7919 18.2668C27.1292 18.2668 27.4026 17.9933 27.4026 17.6561C27.4026 17.3188 27.1292 17.0454 26.7919 17.0454C26.4547 17.0454 26.1812 17.3188 26.1812 17.6561C26.1812 17.9933 26.4547 18.2668 26.7919 18.2668Z" fill="#475569" stroke="#475569" stroke-width="0.2"/>
<path d="M24.3442 15.8189C24.6815 15.8189 24.9549 15.5455 24.9549 15.2083C24.9549 14.871 24.6815 14.5976 24.3442 14.5976C24.0069 14.5976 23.7335 14.871 23.7335 15.2083C23.7335 15.5455 24.0069 15.8189 24.3442 15.8189Z" fill="#475569" stroke="#475569" stroke-width="0.2"/>
<path d="M17.6559 15.8189C17.9932 15.8189 18.2666 15.5455 18.2666 15.2083C18.2666 14.871 17.9932 14.5976 17.6559 14.5976C17.3187 14.5976 17.0453 14.871 17.0453 15.2083C17.0453 15.5455 17.3187 15.8189 17.6559 15.8189Z" fill="#475569" stroke="#475569" stroke-width="0.2"/>
</svg>
