<svg width="42" height="42" viewBox="0 0 42 42" fill="none" xmlns="http://www.w3.org/2000/svg">
<rect width="42" height="42" rx="21" fill="#F1F5F9"/>
<path d="M21 30.7178C15.6415 30.7178 11.2822 26.3585 11.2822 21C11.2822 15.6417 15.6415 11.2822 21 11.2822C26.3585 11.2822 30.7178 15.6417 30.7178 21C30.7178 26.3585 26.3585 30.7178 21 30.7178ZM21 12.846C16.5039 12.846 12.846 16.5039 12.846 21C12.846 25.4961 16.5039 29.154 21 29.154C25.4961 29.154 29.154 25.4961 29.154 21C29.154 16.5039 25.4961 12.846 21 12.846Z" fill="#475569"/>
<path d="M14.1034 26.7302L13.2129 25.4448L27.8965 15.2698L28.787 16.5552L14.1034 26.7302Z" fill="#475569"/>
<path d="M20.9998 16.2796C21.8519 16.2796 22.5426 15.5888 22.5426 14.7368C22.5426 13.8847 21.8519 13.194 20.9998 13.194C20.1478 13.194 19.457 13.8847 19.457 14.7368C19.457 15.5888 20.1478 16.2796 20.9998 16.2796Z" fill="#475569"/>
<path d="M24.3644 18.3559C23.6967 17.8083 23.0289 17.2608 22.3612 16.7132C21.7478 16.2103 20.8715 17.0916 21.4919 17.6005C22.1596 18.1481 22.8274 18.6956 23.4951 19.2432C24.1083 19.7462 24.9848 18.8648 24.3644 18.3559Z" fill="#475569"/>
<path d="M22.5751 17.4533L22.8557 20.8089C22.9 21.3387 22.5531 21.7997 22.0807 21.8393L21.012 21.9286C20.5396 21.968 20.121 21.5709 20.0768 21.0412L19.7963 17.6857C19.752 17.1559 20.0989 16.6948 20.5712 16.6552L21.6399 16.5659C22.1124 16.5266 22.531 16.9236 22.5751 17.4533Z" fill="#475569"/>
<path d="M20.9472 21.987C20.4718 21.987 20.0652 21.5737 20.0213 21.0458L19.7408 17.6903C19.6941 17.131 20.0645 16.6417 20.5668 16.5996L21.6355 16.5103C22.1382 16.4682 22.5848 16.8955 22.6308 17.4488L22.9113 20.8042C22.958 21.3636 22.5876 21.8529 22.0854 21.895L21.0166 21.9842C20.9934 21.9862 20.9703 21.987 20.9472 21.987ZM21.7047 16.6191C21.6848 16.6191 21.6647 16.6199 21.6446 16.6216L20.5759 16.7109C20.1352 16.7479 19.8103 17.183 19.852 17.681L20.1326 21.0365C20.1734 21.5291 20.5586 21.9098 21.0074 21.8729L22.0762 21.7837C22.5168 21.7467 22.8417 21.3114 22.8 20.8136L22.5195 17.4581C22.4802 16.9876 22.1224 16.6191 21.7047 16.6191Z" fill="#475569"/>
<path d="M19.9856 16.9982C19.3206 17.9129 18.6558 18.8276 17.9907 19.7422C17.5213 20.388 18.4756 21.183 18.9466 20.5352C19.6116 19.6205 20.2764 18.7058 20.9415 17.7912C21.4109 17.1456 20.4565 16.3505 19.9856 16.9982Z" fill="#475569"/>
<path d="M23.7602 24.392C23.4892 23.3532 23.2182 22.3145 22.947 21.2756C22.745 20.5007 21.5385 20.7956 21.7411 21.5716C22.0121 22.6104 22.2832 23.6491 22.5543 24.688C22.7563 25.463 23.9626 25.168 23.7602 24.392Z" fill="#475569"/>
<path d="M20.4159 25.1152C20.6632 24.0705 20.9104 23.0259 21.1576 21.981C21.3421 21.2018 20.1381 20.897 19.9535 21.6774C19.7062 22.7222 19.4591 23.7668 19.2118 24.8117C19.0272 25.5909 20.2311 25.8956 20.4159 25.1152Z" fill="#475569"/>
<path d="M26.2754 24.4389C25.2765 24.2585 24.2775 24.078 23.2785 23.8976C22.4906 23.7554 22.2447 24.9726 23.0341 25.1151C24.0331 25.2954 25.032 25.476 26.0311 25.6563C26.8188 25.7987 27.0647 24.5814 26.2754 24.4389Z" fill="#475569"/>
<path d="M21.1276 27.9365C20.9043 26.9462 20.6813 25.9559 20.458 24.9656C20.2819 24.1846 19.0651 24.4326 19.2416 25.2151C19.4649 26.2054 19.6879 27.1957 19.9112 28.1859C20.0872 28.9669 21.304 28.7188 21.1276 27.9365Z" fill="#475569"/>
<path d="M25.7016 20.8249C25.367 20.1249 25.0326 19.425 24.6979 18.725C24.5517 18.4192 24.1015 18.3673 23.8411 18.5322C23.5294 18.7296 23.5024 19.084 23.6482 19.3891C23.9829 20.089 24.3173 20.789 24.6519 21.4889C24.7982 21.7948 25.2484 21.8466 25.5088 21.6817C25.8204 21.4843 25.8473 21.1301 25.7016 20.8249Z" fill="#475569"/>
<path d="M18.4784 19.5746C17.7176 19.4227 16.9569 19.2706 16.1961 19.1187C15.8637 19.0524 15.5522 19.3816 15.528 19.6888C15.4991 20.0566 15.7666 20.2907 16.0981 20.3569C16.8589 20.5088 17.6197 20.661 18.3805 20.8128C18.7129 20.8792 19.0244 20.55 19.0486 20.2427C19.0774 19.875 18.8101 19.641 18.4784 19.5746Z" fill="#475569"/>
</svg>
