<svg width="42" height="42" viewBox="0 0 42 42" fill="none" xmlns="http://www.w3.org/2000/svg">
<rect width="42" height="42" rx="21" fill="#F1F5F9"/>
<path d="M23.8414 26.6729C25.6114 23.7371 27.8486 19.61 27.8486 17.4886C27.8486 13.91 24.9386 11 21.36 11C17.7814 11 14.8714 13.91 14.8714 17.4886C14.8714 19.61 17.1086 23.7371 18.8786 26.6729C16.7786 26.8314 12 27.4014 12 29.2914C12 31.1514 16.8514 32 21.3643 32C25.8729 32 30.7286 31.1514 30.7286 29.2914C30.7243 27.4014 25.9414 26.8314 23.8414 26.6729ZM15.7671 17.4886C15.7671 14.4029 18.2786 11.8914 21.36 11.8914C24.4457 11.8914 26.9571 14.4029 26.9571 17.4886C26.9571 20.1843 22.6629 26.9471 21.36 28.9357C20.0571 26.9471 15.7671 20.1843 15.7671 17.4886ZM21.36 31.1043C15.8786 31.1043 12.8914 29.9043 12.8914 29.2871C12.8914 28.8114 14.8629 27.7871 19.4057 27.5257C20.2586 28.9014 20.9057 29.8743 20.9914 29.99C21.1071 30.1443 21.4457 30.3286 21.7329 29.99C21.8229 29.8829 22.4657 28.9014 23.3186 27.5257C27.8614 27.7871 29.8329 28.8071 29.8329 29.2871C29.8286 29.9086 26.8414 31.1043 21.36 31.1043Z" fill="#475569" stroke="#475569" stroke-width="0.6"/>
<path d="M24.1842 17.4886C24.1842 15.9286 22.9199 14.6643 21.3599 14.6643C19.7999 14.6643 18.5356 15.9286 18.5356 17.4886C18.5356 19.0486 19.7999 20.3128 21.3599 20.3128C22.9199 20.3128 24.1842 19.0486 24.1842 17.4886ZM19.4271 17.4886C19.4271 16.4214 20.2928 15.5557 21.3599 15.5557C22.4271 15.5557 23.2928 16.4214 23.2928 17.4886C23.2928 18.5557 22.4271 19.4214 21.3599 19.4214C20.2928 19.4214 19.4271 18.5557 19.4271 17.4886Z" fill="#475569" stroke="#475569" stroke-width="0.4"/>
</svg>
