<svg width="42" height="42" viewBox="0 0 42 42" fill="none" xmlns="http://www.w3.org/2000/svg">
<rect width="42" height="42" rx="21" fill="#F1F5F9"/>
<path d="M21.5002 27.4063C21.2073 27.4065 20.9173 27.3486 20.6469 27.2359C20.3766 27.1233 20.1312 26.9581 19.9252 26.75L19.1377 25.9625C19.0526 25.8771 18.9514 25.8094 18.84 25.7633C18.7286 25.7173 18.6092 25.6937 18.4886 25.6941H17.5627C16.9719 25.6941 16.4053 25.4598 15.987 25.0427C15.5687 24.6255 15.333 24.0595 15.3314 23.4688V22.5448C15.3326 22.3017 15.2383 22.068 15.0689 21.8938L14.2814 21.1063C13.8646 20.688 13.6306 20.1217 13.6306 19.5313C13.6306 18.9408 13.8646 18.3745 14.2814 17.9563L15.0689 17.1688C15.2386 16.9947 15.3329 16.7608 15.3314 16.5178V15.5938C15.3314 15.002 15.5665 14.4345 15.9849 14.016C16.4034 13.5976 16.9709 13.3625 17.5627 13.3625H18.4814C18.602 13.3629 18.7215 13.3393 18.8329 13.2931C18.9443 13.2469 19.0455 13.1791 19.1304 13.0934L19.9252 12.3125C20.3496 11.9078 20.9136 11.682 21.5002 11.682C22.0867 11.682 22.6507 11.9078 23.0752 12.3125L23.8627 13.1C23.9477 13.1854 24.0489 13.2531 24.1603 13.2992C24.2717 13.3453 24.3911 13.3688 24.5117 13.3684H25.4377C26.0284 13.3684 26.595 13.6027 27.0133 14.0198C27.4316 14.437 27.6673 15.003 27.6689 15.5938V16.5125C27.6696 16.7559 27.766 16.9893 27.9373 17.1622L28.7248 17.9497C29.143 18.3681 29.3779 18.9354 29.3779 19.527C29.3779 20.1185 29.143 20.6859 28.7248 21.1043L27.9373 21.8918C27.766 22.0644 27.6695 22.2976 27.6689 22.5408V23.4688C27.6689 24.0605 27.4338 24.628 27.0154 25.0465C26.5969 25.4649 26.0294 25.7 25.4377 25.7H24.5137C24.393 25.6996 24.2736 25.7232 24.1621 25.7694C24.0507 25.8156 23.9496 25.8835 23.8646 25.9691L23.0752 26.75C22.8691 26.9581 22.6238 27.1233 22.3534 27.2359C22.0831 27.3486 21.793 27.4065 21.5002 27.4063ZM17.5627 14.675C17.442 14.675 17.3225 14.6988 17.2111 14.7449C17.0996 14.7911 16.9983 14.8588 16.913 14.9441C16.8277 15.0294 16.76 15.1307 16.7138 15.2422C16.6677 15.3536 16.6439 15.4731 16.6439 15.5938V16.5125C16.6419 17.103 16.4073 17.6688 15.9909 18.0875L15.2034 18.875C15.0315 19.0473 14.935 19.2807 14.935 19.524C14.935 19.7674 15.0315 20.0008 15.2034 20.1731L15.9909 20.9606C16.4071 21.3794 16.6416 21.9452 16.6439 22.5356V23.4688C16.6439 23.5894 16.6677 23.7089 16.7138 23.8203C16.76 23.9318 16.8277 24.0331 16.913 24.1184C16.9983 24.2037 17.0996 24.2714 17.2111 24.3176C17.3225 24.3637 17.442 24.3875 17.5627 24.3875H18.4814C18.774 24.3871 19.0638 24.4446 19.3341 24.5567C19.6044 24.6687 19.8499 24.8332 20.0564 25.0405L20.8439 25.828C21.0187 25.9951 21.2511 26.0884 21.4929 26.0884C21.7347 26.0884 21.9672 25.9951 22.142 25.828L22.9295 25.0405C23.136 24.8332 23.3814 24.6687 23.6517 24.5567C23.9221 24.4446 24.2119 24.3871 24.5045 24.3875H25.4377C25.6813 24.3875 25.915 24.2907 26.0873 24.1184C26.2596 23.9461 26.3564 23.7124 26.3564 23.4688V22.5448C26.3584 21.9543 26.593 21.3884 27.0094 20.9698L27.7969 20.1823C27.9688 20.01 28.0653 19.7766 28.0653 19.5332C28.0653 19.2899 27.9688 19.0564 27.7969 18.8842L27.0094 18.0967C26.5933 17.6779 26.3587 17.1121 26.3564 16.5217V15.5938C26.3564 15.3501 26.2596 15.1164 26.0873 14.9441C25.915 14.7718 25.6813 14.675 25.4377 14.675H24.5137C24.2208 14.675 23.9309 14.617 23.6606 14.5043C23.3902 14.3917 23.1449 14.2267 22.9387 14.0188L22.1512 13.2313C21.9764 13.0641 21.7439 12.9709 21.5021 12.9709C21.2603 12.9709 21.0278 13.0641 20.8531 13.2313L20.0656 14.0188C19.8594 14.2267 19.614 14.3917 19.3437 14.5043C19.0734 14.617 18.7834 14.675 18.4906 14.675H17.5627Z" fill="#475569"/>
<path d="M21.5 23.7969C20.6563 23.7969 19.8316 23.5467 19.1301 23.078C18.4287 22.6093 17.8819 21.9431 17.5591 21.1636C17.2362 20.3842 17.1517 19.5265 17.3163 18.6991C17.4809 17.8716 17.8872 17.1116 18.4837 16.515C19.0803 15.9184 19.8404 15.5122 20.6678 15.3476C21.4953 15.183 22.3529 15.2675 23.1324 15.5903C23.9118 15.9132 24.578 16.4599 25.0467 17.1614C25.5155 17.8629 25.7656 18.6876 25.7656 19.5313C25.7642 20.6621 25.3144 21.7463 24.5147 22.546C23.7151 23.3456 22.6309 23.7955 21.5 23.7969ZM21.5 16.5781C20.9159 16.5781 20.345 16.7513 19.8593 17.0758C19.3737 17.4003 18.9952 17.8615 18.7717 18.4011C18.5482 18.9408 18.4897 19.5345 18.6036 20.1074C18.7176 20.6802 18.9988 21.2064 19.4118 21.6194C19.8248 22.0324 20.351 22.3137 20.9239 22.4276C21.4967 22.5416 22.0905 22.4831 22.6301 22.2596C23.1697 22.0361 23.6309 21.6576 23.9554 21.1719C24.2799 20.6863 24.4531 20.1153 24.4531 19.5313C24.4523 18.7483 24.1408 17.9977 23.5872 17.444C23.0336 16.8904 22.283 16.579 21.5 16.5781Z" fill="#475569"/>
<path d="M25.372 30.8312C25.1419 30.8316 24.9158 30.7711 24.7166 30.6559C24.5175 30.5406 24.3523 30.3747 24.238 30.175L22.1334 26.5335C22.086 26.4588 22.0541 26.3752 22.0397 26.2879C22.0253 26.2006 22.0288 26.1112 22.0498 26.0253C22.0709 25.9393 22.1091 25.8585 22.1622 25.7877C22.2153 25.7169 22.2822 25.6575 22.3588 25.6132C22.4355 25.5689 22.5203 25.5406 22.6081 25.5299C22.696 25.5193 22.7851 25.5265 22.8701 25.5511C22.9551 25.5758 23.0342 25.6174 23.1027 25.6734C23.1713 25.7295 23.2277 25.7988 23.2687 25.8772L25.3747 29.5194L25.9535 28.1656C26.0662 27.9058 26.2594 27.6891 26.5045 27.5473C26.7496 27.4055 27.0338 27.3462 27.3152 27.3781L28.7819 27.5526L26.4443 23.5016C26.3573 23.3508 26.3338 23.1716 26.3789 23.0034C26.424 22.8352 26.534 22.6918 26.6849 22.6048C26.8357 22.5178 27.0149 22.4942 27.1831 22.5393C27.3512 22.5845 27.4946 22.6945 27.5816 22.8453L29.9185 26.8951C30.0405 27.106 30.1014 27.3468 30.0943 27.5905C30.0871 27.8341 30.0123 28.0709 29.8781 28.2744C29.744 28.4779 29.5558 28.6401 29.3348 28.7426C29.1137 28.8452 28.8684 28.8842 28.6264 28.8553L27.161 28.6801L26.5828 30.0313C26.4877 30.256 26.3315 30.4496 26.132 30.5902C25.9325 30.7307 25.6977 30.8126 25.4541 30.8266C25.4274 30.8297 25.4 30.8312 25.372 30.8312Z" fill="#475569"/>
<path d="M17.6282 30.8312C17.6011 30.8312 17.5742 30.8312 17.5475 30.8312C17.304 30.8173 17.0693 30.7355 16.8699 30.595C16.6705 30.4546 16.5145 30.2611 16.4194 30.0365L15.8406 28.682L14.3752 28.8572C14.1332 28.8862 13.8879 28.8472 13.6668 28.7446C13.4457 28.642 13.2575 28.4799 13.1234 28.2764C12.9893 28.0729 12.9144 27.8361 12.9073 27.5924C12.9002 27.3488 12.961 27.108 13.083 26.897L15.4186 22.8453C15.5056 22.6945 15.649 22.5845 15.8172 22.5393C15.9854 22.4942 16.1646 22.5178 16.3154 22.6048C16.4662 22.6918 16.5763 22.8352 16.6214 23.0034C16.6665 23.1716 16.6429 23.3508 16.5559 23.5016L14.2157 27.5513L15.6818 27.3767C15.9632 27.3454 16.2472 27.4049 16.4924 27.5466C16.7375 27.6883 16.9309 27.9047 17.0441 28.1642L17.6223 29.5174L19.7289 25.8752C19.7699 25.7968 19.8264 25.7275 19.8949 25.6715C19.9634 25.6154 20.0425 25.5738 20.1275 25.5492C20.2125 25.5245 20.3016 25.5173 20.3895 25.528C20.4774 25.5386 20.5621 25.567 20.6388 25.6113C20.7154 25.6556 20.7823 25.7149 20.8354 25.7857C20.8885 25.8565 20.9267 25.9373 20.9478 26.0233C20.9688 26.1093 20.9723 26.1986 20.9579 26.2859C20.9435 26.3733 20.9117 26.4568 20.8642 26.5315L18.7583 30.1737C18.6445 30.3731 18.4801 30.5389 18.2817 30.6544C18.0832 30.7699 17.8578 30.8309 17.6282 30.8312Z" fill="#475569"/>
</svg>
