<svg width="42" height="42" viewBox="0 0 42 42" fill="none" xmlns="http://www.w3.org/2000/svg">
<rect width="42" height="42" rx="21" fill="#F1F5F9"/>
<path fill-rule="evenodd" clip-rule="evenodd" d="M29.8893 24.514C29.8893 26.3718 28.3781 27.8807 26.5227 27.8807H15.4772C13.6218 27.8807 12.1106 26.3718 12.1106 24.514V17.486C12.1106 16.8659 12.2803 16.2836 12.575 15.7838L17.9645 21.1732C18.7708 21.9819 19.8506 22.4275 21.0011 22.4275C22.1493 22.4275 23.229 21.9819 24.0353 21.1732L29.4248 15.7838C29.7195 16.2836 29.8893 16.8659 29.8893 17.486V24.514H29.8893ZM26.5226 14.1193H15.4772C14.711 14.1193 14.0037 14.3786 13.4379 14.8101L18.8816 20.2562C19.4451 20.8172 20.1971 21.1285 21.0011 21.1285C21.8027 21.1285 22.5548 20.8172 23.1182 20.2562L28.5619 14.8101C27.9961 14.3786 27.2889 14.1193 26.5226 14.1193ZM26.5226 12.8203H15.4772C12.9051 12.8203 10.8115 14.9138 10.8115 17.486V24.5141C10.8115 27.0886 12.9051 29.1798 15.4772 29.1798H26.5226C29.0948 29.1798 31.1883 27.0886 31.1883 24.5141V17.486C31.1883 14.9138 29.0948 12.8203 26.5226 12.8203Z" fill="#475569"/>
</svg>
