<?xml version="1.0" encoding="UTF-8"?>
<svg width="20px" height="18px" viewBox="0 0 20 18" version="1.1" xmlns="http://www.w3.org/2000/svg" xmlns:xlink="http://www.w3.org/1999/xlink">
    <!-- Generator: Sketch 56.2 (81672) - https://sketch.com -->
    <title></title>
    <desc>Created with Sketch.</desc>
    <g id="Admin-Settings-" stroke="none" stroke-width="1" fill="none" fill-rule="evenodd">
        <g id="Admin-View@2x-Copy-3" transform="translate(-495.000000, -1152.000000)" fill="#ED6730" fill-rule="nonzero">
            <path d="M512.929645,1156.93749 C512.955687,1157.04165 512.968707,1157.21092 512.968707,1157.4453 C512.968707,1159.32029 512.512979,1161.13018 511.601523,1162.87497 C510.664025,1164.72393 509.348924,1166.19528 507.65622,1167.28902 C505.807266,1168.51298 503.684875,1169.12496 501.289048,1169.12496 C498.997386,1169.12496 496.901037,1168.51298 495,1167.28902 C495.286457,1167.31507 495.611978,1167.32809 495.97656,1167.32809 C497.877598,1167.32809 499.583322,1166.74215 501.093735,1165.57028 C500.18228,1165.57028 499.3815,1165.30335 498.691397,1164.7695 C498.001295,1164.23565 497.526036,1163.56507 497.26562,1162.75778 C497.526036,1162.78383 497.773431,1162.79685 498.007805,1162.79685 C498.372388,1162.79685 498.73697,1162.75778 499.101553,1162.67966 C498.164055,1162.47133 497.382807,1161.98956 496.757808,1161.23435 C496.13281,1160.47914 495.820311,1159.61977 495.820311,1158.65623 L495.820311,1158.57811 C496.393226,1158.91665 497.005203,1159.09894 497.656244,1159.12498 C497.10937,1158.73436 496.666663,1158.23957 496.328122,1157.64061 C495.989581,1157.04165 495.820311,1156.3841 495.820311,1155.66796 C495.820311,1154.95181 496.015623,1154.26822 496.406247,1153.61718 C497.421869,1154.89322 498.665356,1155.90884 500.136707,1156.66405 C501.608057,1157.41926 503.177064,1157.83592 504.843727,1157.91405 C504.791644,1157.60155 504.765602,1157.28905 504.765602,1156.97655 C504.765602,1156.24738 504.947893,1155.56379 505.312475,1154.92577 C505.677058,1154.28775 506.171848,1153.78645 506.796847,1153.42187 C507.421845,1153.05729 508.098927,1152.875 508.828092,1152.875 C509.427049,1152.875 509.980433,1152.99218 510.488244,1153.22656 C510.996056,1153.46093 511.445273,1153.77343 511.835897,1154.16405 C512.773395,1153.98176 513.645789,1153.65624 514.453079,1153.18749 C514.140579,1154.15103 513.541623,1154.90624 512.656208,1155.45311 C513.437456,1155.34895 514.218704,1155.12759 514.999952,1154.78905 C514.427037,1155.62238 513.736935,1156.33853 512.929645,1156.93749 Z" id=""></path>
        </g>
    </g>
</svg>