<?xml version="1.0" encoding="UTF-8"?>
<svg width="22px" height="16px" viewBox="0 0 22 16" version="1.1" xmlns="http://www.w3.org/2000/svg" xmlns:xlink="http://www.w3.org/1999/xlink">
    <!-- Generator: Sketch 56.2 (81672) - https://sketch.com -->
    <title></title>
    <desc>Created with Sketch.</desc>
    <g id="Admin-Settings-" stroke="none" stroke-width="1" fill="none" fill-rule="evenodd">
        <g id="Admin-View@2x-Copy-3" transform="translate(-678.000000, -1153.000000)" fill="#ED6730" fill-rule="nonzero">
            <path d="M699.484324,1155.84374 C699.666615,1156.54686 699.796823,1157.61457 699.874948,1159.04686 L699.91401,1160.99998 L699.874948,1162.9531 C699.796823,1164.41143 699.666615,1165.49215 699.484324,1166.19528 C699.354116,1166.63798 699.119742,1167.02861 698.7812,1167.36715 C698.442659,1167.70569 698.039015,1167.94006 697.570266,1168.07027 C696.893184,1168.25256 695.304646,1168.38277 692.804652,1168.4609 L689.249973,1168.49996 L685.695294,1168.4609 C683.1953,1168.38277 681.606762,1168.25256 680.929681,1168.07027 C680.460932,1167.94006 680.057287,1167.70569 679.718746,1167.36715 C679.380205,1167.02861 679.14583,1166.63798 679.015623,1166.19528 C678.833331,1165.49215 678.703123,1164.41143 678.624999,1162.9531 L678.585936,1160.99998 C678.585936,1160.42706 678.598957,1159.77602 678.624999,1159.04686 C678.703123,1157.61457 678.833331,1156.54686 679.015623,1155.84374 C679.14583,1155.37499 679.380205,1154.97134 679.718746,1154.6328 C680.057287,1154.29426 680.460932,1154.05989 680.929681,1153.92968 C681.606762,1153.74739 683.1953,1153.61718 685.695294,1153.53906 L689.249973,1153.49999 L692.804652,1153.53906 C695.304646,1153.61718 696.893184,1153.74739 697.570266,1153.92968 C698.039015,1154.05989 698.442659,1154.29426 698.7812,1154.6328 C699.119742,1154.97134 699.354116,1155.37499 699.484324,1155.84374 Z M687.062478,1164.20309 L692.648403,1160.99998 L687.062478,1157.83592 L687.062478,1164.20309 Z" id=""></path>
        </g>
    </g>
</svg>